<svg width="24" height="24" viewBox="0 0 24 24" fill="none" xmlns="http://www.w3.org/2000/svg">
<path d="M22.1392 3.51138H19.9802V0.676101C19.9802 0.333474 19.7025 0.0557861 19.3599 0.0557861C19.0173 0.0557861 18.7396 0.333474 18.7396 0.676101V3.51138H5.53753V0.676101C5.53753 0.333474 5.2596 0.0557861 4.91721 0.0557861C4.57458 0.0557861 4.2969 0.333474 4.2969 0.676101V3.51138H1.86095C0.833549 3.51259 0.00121155 4.34517 0 5.37232V9.19259H23.9999V5.37232C23.9989 4.34517 23.1664 3.51259 22.1392 3.51138Z" fill="#C6C9CA"/>
<path d="M0 22.139C0.00121155 23.1664 0.833549 23.9988 1.86095 24H22.139C23.1664 23.9988 23.9989 23.1664 23.9999 22.139V10.4332H0V22.139Z" fill="#C6C9CA"/>
</svg>
