<svg width="20" height="20" viewBox="0 0 20 20" fill="none" xmlns="http://www.w3.org/2000/svg">
<path d="M9.99996 1.66663C6.77496 1.66663 4.16663 4.27496 4.16663 7.49996C4.16663 11.875 9.99996 18.3333 9.99996 18.3333C9.99996 18.3333 15.8333 11.875 15.8333 7.49996C15.8333 4.27496 13.225 1.66663 9.99996 1.66663ZM5.83329 7.49996C5.83329 5.19996 7.69996 3.33329 9.99996 3.33329C12.3 3.33329 14.1666 5.19996 14.1666 7.49996C14.1666 9.89996 11.7666 13.4916 9.99996 15.7333C8.26663 13.5083 5.83329 9.87496 5.83329 7.49996Z" fill="black"/>
<path d="M9.99996 9.58329C11.1506 9.58329 12.0833 8.65055 12.0833 7.49996C12.0833 6.34937 11.1506 5.41663 9.99996 5.41663C8.84937 5.41663 7.91663 6.34937 7.91663 7.49996C7.91663 8.65055 8.84937 9.58329 9.99996 9.58329Z" fill="black"/>
</svg>
