<svg width="211" height="54" viewBox="0 0 211 54" fill="none" xmlns="http://www.w3.org/2000/svg">
<path d="M57.0666 27.2066H54.9625V24.9549H56.2621C56.9841 24.9549 57.3141 24.6004 57.3141 23.6414V21.1603H59.4182V24.9549H61.9968V27.2066H59.4182V32.5441C59.4182 33.7325 59.9546 34.3163 61.0685 34.3163C61.4192 34.3163 61.7286 34.2537 61.9761 34.1495L62.3475 33.9618V36.2136L61.8524 36.4012C61.543 36.5054 61.1304 36.568 60.594 36.568C58.3455 36.568 57.0666 35.2545 57.0666 32.7734V27.2066Z" fill="black"/>
<path d="M65.0085 19.7217H67.3601V26.602C67.587 26.2475 67.8758 25.9348 68.2265 25.6429C68.8041 25.1634 69.6912 24.6838 70.8876 24.6838C73.4662 24.6838 75.3434 26.5603 75.3434 29.6669V36.3178H72.9711V29.6669C72.9711 27.9781 71.919 26.9356 70.3925 26.9356C68.6391 26.9356 67.3395 28.2491 67.3395 30.1464V36.3178H65.0085V19.7217Z" fill="black"/>
<path d="M88.2981 34.4414C87.9886 34.8376 87.5967 35.192 87.1222 35.5047C86.2971 36.0468 85.1419 36.5681 83.4916 36.5681C80.2117 36.5681 77.6331 33.9619 77.6331 30.6468C77.6331 27.3318 80.2117 24.7256 83.3885 24.7256C86.5859 24.7256 88.8963 27.0816 88.8963 30.2924C88.8963 30.6468 88.855 30.9387 88.8344 31.1472L88.7932 31.4808H80.1085C80.3767 33.0237 81.7382 34.3372 83.636 34.3372C84.6468 34.3372 85.472 33.9619 86.0289 33.5866C86.359 33.3781 86.6684 33.107 86.916 32.7943L88.2981 34.4414ZM86.4209 29.4584C86.0702 27.9155 85.0388 26.8522 83.3678 26.8522C81.5938 26.8522 80.5417 27.9155 80.0879 29.4584H86.4209Z" fill="black"/>
<path d="M91.6608 32.8986C91.8877 33.2113 92.1559 33.4615 92.4653 33.6908C93.0016 34.0661 93.6824 34.4414 94.6107 34.4414C95.9309 34.4414 96.6116 33.7534 96.6116 33.0237C96.6116 31.1264 90.6294 32.1063 90.6294 28.0406C90.6294 26.2684 92.1765 24.7256 94.7344 24.7256C96.0753 24.7256 97.0861 25.1217 97.7462 25.5179C98.1381 25.7264 98.4682 25.9974 98.7364 26.2684L97.2099 27.8113C97.0242 27.6445 96.8179 27.4777 96.5498 27.3318C96.0959 27.0607 95.4977 26.8522 94.7344 26.8522C93.538 26.8522 92.981 27.436 92.981 28.0406C92.981 29.9379 98.9633 28.9997 98.9633 33.0237C98.9633 34.921 97.3336 36.5889 94.6313 36.5889C93.1254 36.5889 92.0527 36.0677 91.2895 35.5256C90.8356 35.2128 90.4643 34.8584 90.1549 34.4623L91.6608 32.8986Z" fill="black"/>
<path d="M101.129 24.9548H103.481V31.6058C103.481 33.2946 104.533 34.3371 106.059 34.3371C107.813 34.3371 109.112 33.0236 109.112 31.1263V24.9548H111.464V36.3386H109.112V34.6707C108.844 35.0251 108.576 35.3379 108.225 35.6297C107.648 36.1093 106.802 36.5888 105.606 36.5888C103.027 36.5888 101.15 34.7124 101.15 31.6058V24.9548H101.129Z" fill="black"/>
<path d="M114.455 24.9549H116.807V26.6229C117.033 26.2684 117.322 25.9557 117.673 25.6638C118.251 25.1842 119.138 24.7047 120.334 24.7047C122.913 24.7047 124.79 26.5812 124.79 29.6877V36.3387H122.438V29.6877C122.438 27.9989 121.386 26.9564 119.86 26.9564C118.106 26.9564 116.807 28.27 116.807 30.1673V36.3387H114.455V24.9549Z" fill="black"/>
<path d="M127.905 19.7217H130.257V26.602C130.484 26.2475 130.772 25.9348 131.123 25.6429C131.701 25.1634 132.588 24.6838 133.784 24.6838C136.363 24.6838 138.24 26.5603 138.24 29.6669V36.3178H135.888V29.6669C135.888 27.9781 134.836 26.9356 133.31 26.9356C131.556 26.9356 130.257 28.2491 130.257 30.1464V36.3178H127.905V19.7217Z" fill="black"/>
<path d="M146.409 24.7047C149.688 24.7047 152.267 27.3109 152.267 30.626C152.267 33.941 149.688 36.5472 146.409 36.5472C143.129 36.5472 140.55 33.941 140.55 30.626C140.529 27.3317 143.108 24.7047 146.409 24.7047ZM149.915 30.6468C149.915 28.4785 148.389 26.9773 146.388 26.9773C144.387 26.9773 142.86 28.4993 142.86 30.6468C142.86 32.8151 144.387 34.3163 146.388 34.3163C148.389 34.3163 149.915 32.7943 149.915 30.6468Z" fill="black"/>
<path d="M154.681 19.7217H157.032V36.3178H154.681V19.7217Z" fill="black"/>
<path d="M161.447 19.9719C162.169 19.9719 162.85 20.5557 162.85 21.3897C162.85 22.2237 162.169 22.8074 161.447 22.8074C160.725 22.8074 160.044 22.2237 160.044 21.3897C160.044 20.5557 160.725 19.9719 161.447 19.9719ZM160.271 24.9549H162.623V36.3387H160.271V24.9549Z" fill="black"/>
<path d="M174.195 34.6707C173.968 35.0251 173.659 35.3378 173.288 35.6297C172.648 36.1093 171.658 36.5888 170.338 36.5888C167.512 36.5888 165.057 34.1077 165.057 30.6676C165.057 27.2274 167.512 24.7463 170.338 24.7463C171.679 24.7463 172.669 25.2259 173.288 25.7054C173.659 25.9973 173.968 26.2892 174.195 26.6645V19.7842H176.547V36.3803H174.195V34.6707ZM174.195 30.6467C174.195 28.4784 172.669 26.9772 170.792 26.9772C168.914 26.9772 167.388 28.4992 167.388 30.6467C167.388 32.8151 168.914 34.3162 170.792 34.3162C172.669 34.3162 174.195 32.7942 174.195 30.6467Z" fill="black"/>
<path d="M186.242 34.6707C186.015 35.0251 185.706 35.3378 185.355 35.6297C184.716 36.1093 183.829 36.5888 182.612 36.5888C180.363 36.5888 178.857 35.0459 178.857 33.2737C178.857 31.3765 180.157 30.0629 182.137 29.7085L186.242 28.9996C186.242 27.7904 185.293 26.873 183.891 26.873C182.983 26.873 182.302 27.2691 181.745 27.6653C181.436 27.8738 181.188 28.1448 180.941 28.4158L179.414 26.873C179.724 26.4768 180.095 26.1224 180.549 25.8097C181.292 25.2676 182.385 24.7463 183.891 24.7463C186.717 24.7463 188.594 26.6436 188.594 29.1247V36.3595H186.242V34.6707ZM186.242 30.8761L182.962 31.4598C181.766 31.6683 181.209 32.273 181.209 33.0027C181.209 33.8367 181.89 34.5456 183.086 34.5456C184.84 34.5456 186.263 33.1278 186.263 31.2305V30.8761H186.242Z" fill="black"/>
<path d="M190.657 38.7154C190.78 38.778 190.884 38.8405 191.049 38.9031C191.317 39.0073 191.606 39.0699 192.059 39.0699C193.008 39.0699 193.689 38.4861 194.06 37.527L194.535 36.3386L189.955 24.9548H192.534L195.711 33.378L198.887 24.9548H201.466L196.536 37.6521C195.587 40.0498 194.308 41.3216 192.431 41.3216C191.894 41.3216 191.461 41.2591 191.172 41.1548L190.677 40.9672V38.7154H190.657Z" fill="black"/>
<path d="M203.508 32.8986C203.735 33.2113 204.004 33.4615 204.313 33.6908C204.849 34.0661 205.53 34.4414 206.458 34.4414C207.779 34.4414 208.459 33.7534 208.459 33.0237C208.459 31.1264 202.477 32.1063 202.477 28.0406C202.477 26.2684 204.024 24.7256 206.582 24.7256C207.923 24.7256 208.934 25.1217 209.594 25.5179C209.986 25.7264 210.316 25.9974 210.584 26.2684L209.057 27.8113C208.872 27.6445 208.666 27.4777 208.397 27.3318C207.944 27.0607 207.345 26.8522 206.582 26.8522C205.386 26.8522 204.829 27.436 204.829 28.0406C204.829 29.9379 210.811 28.9997 210.811 33.0237C210.811 34.921 209.181 36.5889 206.479 36.5889C204.973 36.5889 203.9 36.0677 203.137 35.5256C202.683 35.2128 202.312 34.8584 202.003 34.4623L203.508 32.8986Z" fill="black"/>
<g clip-path="url(#clip0)">
<path d="M21.3818 34.4021L26.7805 28.927H26.8037L32.1793 39.3604H32.2025L34.1488 37.3865C34.1488 37.3865 34.1488 37.3865 34.1488 37.363L31.2061 24.4387C31.2061 24.4387 31.2061 24.4387 31.2061 24.4152L36.6049 18.94C37.6012 17.9296 37.3232 15.9557 35.7939 15.4622C35.0061 15.2037 34.1488 15.4622 33.5464 16.0732L28.2635 21.4309C28.2635 21.4309 28.2635 21.4309 28.2403 21.4309L15.4964 18.47C15.4964 18.47 15.4964 18.47 15.4732 18.47L13.5269 20.4439V20.4674L23.8147 25.9191V25.9426L20.0842 29.7259L18.3927 31.3943C17.3501 32.4283 15.4037 33.4387 15.3805 33.4387C15.2879 33.4857 15.172 33.5327 15.0793 33.5562C10.9549 35.2011 6.45983 32.2168 6.13544 27.7285C5.76471 22.2768 7.61836 16.6841 11.7196 12.5249C19.1574 4.98178 31.2061 4.91129 38.7366 12.2899C46.522 19.9035 46.4525 32.6162 38.8061 40.3708L25.3671 54.0001H25.3439L19.1805 47.7494C15.4964 44.0131 17.0025 39.9713 18.8098 37.316C18.9025 37.1985 18.9952 37.081 19.0647 36.987C19.0879 36.987 20.4549 35.3421 21.3818 34.4021Z" fill="#FDB714"/>
</g>
<defs>
<clipPath id="clip0">
<rect width="40.989" height="54" fill="white" transform="translate(4.83783)"/>
</clipPath>
</defs>
</svg>
