<svg width="211" height="54" viewBox="0 0 211 54" fill="none" xmlns="http://www.w3.org/2000/svg">
<path d="M57.067 27.2066H54.9629V24.9549H56.2625C56.9845 24.9549 57.3145 24.6004 57.3145 23.6414V21.1603H59.4186V24.9549H61.9972V27.2066H59.4186V32.5441C59.4186 33.7325 59.955 34.3163 61.0689 34.3163C61.4196 34.3163 61.729 34.2537 61.9766 34.1495L62.3479 33.9618V36.2136L61.8528 36.4012C61.5434 36.5054 61.1308 36.568 60.5945 36.568C58.346 36.568 57.067 35.2545 57.067 32.7734V27.2066Z" fill="white"/>
<path d="M65.0088 19.7217H67.3604V26.602C67.5874 26.2475 67.8762 25.9348 68.2268 25.6429C68.8044 25.1634 69.6915 24.6838 70.8879 24.6838C73.4665 24.6838 75.3437 26.5603 75.3437 29.6669V36.3178H72.9714V29.6669C72.9714 27.9781 71.9193 26.9356 70.3928 26.9356C68.6394 26.9356 67.3398 28.2491 67.3398 30.1464V36.3178H65.0088V19.7217Z" fill="white"/>
<path d="M88.2987 34.4414C87.9893 34.8376 87.5974 35.192 87.1229 35.5047C86.2978 36.0468 85.1426 36.5681 83.4923 36.5681C80.2124 36.5681 77.6338 33.9619 77.6338 30.6468C77.6338 27.3318 80.2124 24.7256 83.3891 24.7256C86.5866 24.7256 88.897 27.0816 88.897 30.2924C88.897 30.6468 88.8557 30.9387 88.8351 31.1472L88.7938 31.4808H80.1092C80.3774 33.0237 81.7389 34.3372 83.6367 34.3372C84.6475 34.3372 85.4726 33.9619 86.0296 33.5866C86.3597 33.3781 86.6691 33.107 86.9166 32.7943L88.2987 34.4414ZM86.4215 29.4584C86.0709 27.9155 85.0394 26.8522 83.3685 26.8522C81.5945 26.8522 80.5424 27.9155 80.0886 29.4584H86.4215Z" fill="white"/>
<path d="M91.6612 32.8986C91.8881 33.2113 92.1562 33.4615 92.4657 33.6908C93.002 34.0661 93.6827 34.4414 94.611 34.4414C95.9313 34.4414 96.612 33.7534 96.612 33.0237C96.612 31.1264 90.6297 32.1063 90.6297 28.0406C90.6297 26.2684 92.1769 24.7256 94.7348 24.7256C96.0757 24.7256 97.0865 25.1217 97.7466 25.5179C98.1385 25.7264 98.4686 25.9974 98.7367 26.2684L97.2102 27.8113C97.0246 27.6445 96.8183 27.4777 96.5501 27.3318C96.0963 27.0607 95.4981 26.8522 94.7348 26.8522C93.5384 26.8522 92.9814 27.436 92.9814 28.0406C92.9814 29.9379 98.9637 28.9997 98.9637 33.0237C98.9637 34.921 97.334 36.5889 94.6317 36.5889C93.1258 36.5889 92.0531 36.0677 91.2898 35.5256C90.836 35.2128 90.4647 34.8584 90.1553 34.4623L91.6612 32.8986Z" fill="white"/>
<path d="M101.13 24.9548H103.482V31.6058C103.482 33.2946 104.534 34.3371 106.06 34.3371C107.814 34.3371 109.113 33.0236 109.113 31.1263V24.9548H111.465V36.3386H109.113V34.6707C108.845 35.0251 108.577 35.3379 108.226 35.6297C107.649 36.1093 106.803 36.5888 105.606 36.5888C103.028 36.5888 101.151 34.7124 101.151 31.6058V24.9548H101.13Z" fill="white"/>
<path d="M114.455 24.9549H116.807V26.6229C117.034 26.2684 117.322 25.9557 117.673 25.6638C118.251 25.1842 119.138 24.7047 120.334 24.7047C122.913 24.7047 124.79 26.5812 124.79 29.6877V36.3387H122.438V29.6877C122.438 27.9989 121.386 26.9564 119.86 26.9564C118.106 26.9564 116.807 28.27 116.807 30.1673V36.3387H114.455V24.9549Z" fill="white"/>
<path d="M127.905 19.7217H130.257V26.602C130.484 26.2475 130.773 25.9348 131.123 25.6429C131.701 25.1634 132.588 24.6838 133.784 24.6838C136.363 24.6838 138.24 26.5603 138.24 29.6669V36.3178H135.889V29.6669C135.889 27.9781 134.836 26.9356 133.31 26.9356C131.557 26.9356 130.257 28.2491 130.257 30.1464V36.3178H127.905V19.7217Z" fill="white"/>
<path d="M146.409 24.7047C149.689 24.7047 152.268 27.3109 152.268 30.626C152.268 33.941 149.689 36.5472 146.409 36.5472C143.129 36.5472 140.551 33.941 140.551 30.626C140.53 27.3317 143.109 24.7047 146.409 24.7047ZM149.916 30.6468C149.916 28.4785 148.39 26.9773 146.389 26.9773C144.388 26.9773 142.861 28.4993 142.861 30.6468C142.861 32.8151 144.388 34.3163 146.389 34.3163C148.39 34.3163 149.916 32.7943 149.916 30.6468Z" fill="white"/>
<path d="M154.682 19.7217H157.033V36.3178H154.682V19.7217Z" fill="white"/>
<path d="M161.448 19.9719C162.17 19.9719 162.85 20.5557 162.85 21.3897C162.85 22.2237 162.17 22.8074 161.448 22.8074C160.726 22.8074 160.045 22.2237 160.045 21.3897C160.045 20.5557 160.726 19.9719 161.448 19.9719ZM160.272 24.9549H162.623V36.3387H160.272V24.9549Z" fill="white"/>
<path d="M174.196 34.6707C173.969 35.0251 173.66 35.3378 173.288 35.6297C172.649 36.1093 171.659 36.5888 170.339 36.5888C167.512 36.5888 165.058 34.1077 165.058 30.6676C165.058 27.2274 167.512 24.7463 170.339 24.7463C171.679 24.7463 172.67 25.2259 173.288 25.7054C173.66 25.9973 173.969 26.2892 174.196 26.6645V19.7842H176.548V36.3803H174.196V34.6707ZM174.196 30.6467C174.196 28.4784 172.67 26.9772 170.792 26.9772C168.915 26.9772 167.389 28.4992 167.389 30.6467C167.389 32.8151 168.915 34.3162 170.792 34.3162C172.67 34.3162 174.196 32.7942 174.196 30.6467Z" fill="white"/>
<path d="M186.242 34.6707C186.016 35.0251 185.706 35.3378 185.355 35.6297C184.716 36.1093 183.829 36.5888 182.612 36.5888C180.363 36.5888 178.857 35.0459 178.857 33.2737C178.857 31.3765 180.157 30.0629 182.137 29.7085L186.242 28.9996C186.242 27.7904 185.294 26.873 183.891 26.873C182.983 26.873 182.302 27.2691 181.745 27.6653C181.436 27.8738 181.188 28.1448 180.941 28.4158L179.414 26.873C179.724 26.4768 180.095 26.1224 180.549 25.8097C181.292 25.2676 182.385 24.7463 183.891 24.7463C186.717 24.7463 188.594 26.6436 188.594 29.1247V36.3595H186.242V34.6707ZM186.242 30.8761L182.962 31.4598C181.766 31.6683 181.209 32.273 181.209 33.0027C181.209 33.8367 181.89 34.5456 183.086 34.5456C184.84 34.5456 186.263 33.1278 186.263 31.2305V30.8761H186.242Z" fill="white"/>
<path d="M190.657 38.7154C190.781 38.778 190.884 38.8405 191.049 38.9031C191.318 39.0073 191.606 39.0699 192.06 39.0699C193.009 39.0699 193.69 38.4861 194.061 37.527L194.536 36.3386L189.956 24.9548H192.535L195.711 33.378L198.888 24.9548H201.467L196.537 37.6521C195.588 40.0498 194.309 41.3216 192.431 41.3216C191.895 41.3216 191.462 41.2591 191.173 41.1548L190.678 40.9672V38.7154H190.657Z" fill="white"/>
<path d="M203.509 32.8986C203.736 33.2113 204.004 33.4615 204.313 33.6908C204.85 34.0661 205.53 34.4414 206.459 34.4414C207.779 34.4414 208.46 33.7534 208.46 33.0237C208.46 31.1264 202.477 32.1063 202.477 28.0406C202.477 26.2684 204.025 24.7256 206.582 24.7256C207.923 24.7256 208.934 25.1217 209.594 25.5179C209.986 25.7264 210.316 25.9974 210.584 26.2684L209.058 27.8113C208.872 27.6445 208.666 27.4777 208.398 27.3318C207.944 27.0607 207.346 26.8522 206.582 26.8522C205.386 26.8522 204.829 27.436 204.829 28.0406C204.829 29.9379 210.811 28.9997 210.811 33.0237C210.811 34.921 209.182 36.5889 206.479 36.5889C204.973 36.5889 203.901 36.0677 203.137 35.5256C202.684 35.2128 202.312 34.8584 202.003 34.4623L203.509 32.8986Z" fill="white"/>
<g clip-path="url(#clip0)">
<path d="M21.382 34.4021L26.7808 28.927H26.8039L32.1795 39.3604H32.2027L34.1491 37.3865C34.1491 37.3865 34.1491 37.3865 34.1491 37.363L31.2064 24.4387C31.2064 24.4387 31.2064 24.4387 31.2064 24.4152L36.6052 18.94C37.6015 17.9296 37.3234 15.9557 35.7942 15.4622C35.0064 15.2037 34.1491 15.4622 33.5466 16.0732L28.2637 21.4309C28.2637 21.4309 28.2637 21.4309 28.2405 21.4309L15.4966 18.47C15.4966 18.47 15.4966 18.47 15.4735 18.47L13.5271 20.4439V20.4674L23.8149 25.9191V25.9426L20.0844 29.7259L18.393 31.3943C17.3503 32.4283 15.404 33.4387 15.3808 33.4387C15.2881 33.4857 15.1723 33.5327 15.0796 33.5562C10.9552 35.2011 6.46007 32.2168 6.13568 27.7285C5.76495 22.2768 7.61861 16.6841 11.7198 12.5249C19.1576 4.98178 31.2064 4.91129 38.7369 12.2899C46.5222 19.9035 46.4527 32.6162 38.8064 40.3708L25.3674 54.0001H25.3442L19.1808 47.7494C15.4966 44.0131 17.0027 39.9713 18.8101 37.316C18.9027 37.1985 18.9954 37.081 19.0649 36.987C19.0881 36.987 20.4552 35.3421 21.382 34.4021Z" fill="#FDB714"/>
</g>
<defs>
<clipPath id="clip0">
<rect width="40.989" height="54" fill="white" transform="translate(4.83789)"/>
</clipPath>
</defs>
</svg>
