<svg width="212" height="211" viewBox="0 0 212 211" fill="none" xmlns="http://www.w3.org/2000/svg">
<g clip-path="url(#clip0)">
<path d="M202.856 206.11C202.856 207.859 157.455 209.287 101.446 209.287C45.4362 209.287 0 207.859 0 206.11C0 204.361 45.4005 202.933 101.41 202.933C157.419 202.933 202.856 204.361 202.856 206.11Z" fill="#EDEDED"/>
<path d="M177.101 100.485C177.101 100.485 180.137 100.735 181.388 100.235C182.638 99.7351 183.102 100.806 183.638 100.806C184.174 100.806 185.102 98.9141 184.71 98.3429C183.924 97.165 179.352 97.3435 178.208 97.3435C177.065 97.3435 176.101 99.1639 176.101 99.5209C176.101 99.8779 177.101 100.485 177.101 100.485Z" fill="#DB730B"/>
<path d="M131.772 97.7361C131.772 97.7361 127.378 97.0935 126.842 96.451C126.199 95.7014 125.306 94.5948 124.271 93.2027C122.663 93.8095 121.341 94.9161 120.306 96.3082C120.341 96.3439 120.413 96.4153 120.448 96.451C123.378 99.5209 125.628 101.627 125.628 101.627L132.843 104.625L131.772 97.7361Z" fill="#FC7575"/>
<path d="M174.243 88.8835C172.135 86.7774 170.814 74.4265 170.778 74.0339C170.385 62.9681 169.278 50.7957 166.027 47.5473C160.99 42.5142 158.276 45.9053 155.882 55.1149C155.204 57.685 156.097 62.3255 157.704 67.4658C159.49 75.0334 162.205 85.6351 164.205 89.0977C167.42 94.6663 176.815 100.342 176.815 100.342C179.494 96.5582 184.709 98.3787 184.709 98.3787C184.709 98.3787 176.35 91.0252 174.243 88.8835Z" fill="#FF9739"/>
<path d="M160.133 204.753C153.453 204.753 152.596 196.793 152.596 196.793L158.383 157.42L164.634 110.373L162.884 96.451H128.449L128.199 108.731L127.699 156.528L134.915 195.901C134.915 195.901 134.057 203.861 127.378 203.861C120.698 203.861 120.841 206.324 120.841 206.324C120.841 206.324 129.021 206.324 132.271 206.324C135.522 206.324 140.451 206.324 140.451 206.324C140.451 206.324 139.308 197.507 139.308 196.686C139.308 195.865 138.094 153.351 138.094 153.351L145.488 114.585L148.381 155.278C148.381 155.278 148.167 196.757 148.167 197.578C148.167 198.399 147.024 207.216 147.024 207.216C147.024 207.216 151.917 207.216 155.204 207.216C158.454 207.216 166.634 207.216 166.634 207.216C166.634 207.216 166.813 204.753 160.133 204.753Z" fill="#363A68"/>
<path d="M163.098 98.2715L162.848 96.451H128.414L128.378 98.0574L135.594 100.235C141.488 102.02 147.739 102.162 153.74 100.663L163.098 98.2715Z" fill="#1B1464"/>
<path d="M165.242 46.5121C161.491 42.764 152.847 36.8028 143.274 38.2306C143.274 38.2306 133.665 37.7666 122.949 48.4754C112.233 59.1842 106.91 69.8931 106.303 76.247C105.91 80.4592 114.483 91.525 120.341 97.629C121.377 96.2369 122.663 93.7738 124.306 93.167C121.556 89.4903 117.984 83.9931 116.983 79.067C115.269 70.7498 127.771 61.326 127.771 61.326V97.8075L163.348 98.1645L166.742 62.6468C166.706 62.6825 168.992 50.2602 165.242 46.5121Z" fill="#F9B406"/>
<path d="M141.737 30.0562C141.737 30.0562 141.63 38.1235 140.773 42.1929C140.451 43.7635 141.273 45.4055 142.773 45.9767C143.881 46.405 145.381 46.6549 147.238 46.3336C152.06 45.5126 152.203 40.6936 152.203 40.6936L150.56 26.0582L141.737 30.0562Z" fill="#FC7575"/>
<path d="M150.56 26.0582L141.737 30.0562C141.737 30.0562 141.702 33.0189 141.487 36.2673C143.773 36.3744 146.667 35.1964 149.739 31.6982C150.203 31.1627 150.632 30.663 151.025 30.1633L150.56 26.0582Z" fill="#FD5E5A"/>
<path d="M142.309 9.4238C142.309 9.4238 139.273 11.7084 137.987 15.5278C136.666 19.3473 135.522 22.1316 135.522 22.1316L136.916 22.9526C136.916 22.9526 135.808 28.3071 136.666 30.1276C137.987 32.9119 143.488 35.1607 149.739 28.9139C155.99 22.6671 156.526 17.1699 155.454 14.457C154.383 11.7797 144.738 8.03165 142.309 9.4238Z" fill="#FC7575"/>
<path d="M151.704 15.4564C151.704 15.4564 148.918 13.1719 144.917 14.1357C140.916 15.0995 139.559 13.6002 140.345 12.8149C140.345 12.8149 136.844 12.8863 135.522 10.0306C134.201 7.17493 134.558 -1.46354 140.738 0.142791C146.953 1.78481 145.703 5.67569 145.703 5.67569C145.703 5.67569 147.703 3.7838 149.561 4.78329C151.454 5.74709 151.204 7.13924 151.204 7.13924C151.204 7.13924 152.918 10.3162 155.276 10.7445C157.633 11.1372 157.383 15.8848 157.383 15.8848C157.383 15.8848 158.776 16.8486 157.776 20.2754C156.812 23.7023 151.025 28.9853 151.025 30.5916C151.025 30.5916 149.596 28.4855 150.739 25.1658C151.882 21.8104 151.882 19.8471 150.668 19.8471C149.489 19.9542 151.704 15.4564 151.704 15.4564Z" fill="#0B1742"/>
<path d="M149.918 22.1673C149.918 22.1673 150.311 19.3473 151.204 19.3473C152.097 19.3473 152.918 19.6686 152.704 21.2392C152.49 22.8455 151.561 24.5946 150.418 23.8807C149.239 23.1311 149.918 22.1673 149.918 22.1673Z" fill="#FC7575"/>
<path d="M160.455 15.7063C160.384 15.4922 160.17 15.2423 159.955 15.1352C159.17 14.8139 158.134 15.5279 157.455 15.9919L157.348 15.8491C157.812 15.3851 158.277 14.921 158.955 14.5998C159.955 14.1714 160.848 14.5998 161.241 15.4208L160.455 15.7063Z" fill="#0B1742"/>
<path d="M159.848 19.1689C159.92 18.7762 159.92 18.3478 159.812 17.9552C159.312 15.9919 156.919 16.1704 156.812 16.099V15.9919C156.883 16.0276 160.277 15.3494 160.777 18.5263C160.813 18.8119 160.848 19.0261 160.813 19.383L159.848 19.1689Z" fill="#0B1742"/>
<path d="M141.595 17.9909C141.595 18.6691 141.273 19.2402 140.916 19.2402C140.523 19.2402 140.237 18.6691 140.237 17.9909C140.237 17.3127 140.559 16.7415 140.916 16.7415C141.273 16.7415 141.595 17.277 141.595 17.9909Z" fill="#2846A6"/>
<path d="M143.31 15.9562C142.059 15.2066 140.309 15.4921 140.273 15.4921L140.202 14.9924C140.273 14.9924 142.167 14.6711 143.56 15.5278L143.31 15.9562Z" fill="#2846A6"/>
<path d="M141.881 25.1301C140.238 25.7013 137.916 25.5228 136.559 25.3086C136.523 25.7013 136.451 26.1296 136.416 26.558C139.952 26.665 141.881 25.1301 141.881 25.1301Z" fill="white"/>
<path d="M193.89 99.5566H181.138C179.137 99.5566 177.53 101.163 177.53 103.162V161.811C177.53 163.81 179.137 165.416 181.138 165.416H193.89C195.89 165.416 197.498 163.81 197.498 161.811V103.162C197.498 101.163 195.89 99.5566 193.89 99.5566ZM195.39 161.811C195.39 162.632 194.712 163.31 193.89 163.31H181.138C180.316 163.31 179.638 162.632 179.638 161.811V103.162C179.638 102.341 180.316 101.663 181.138 101.663H193.89C194.712 101.663 195.39 102.341 195.39 103.162V161.811Z" fill="#4A3F4C"/>
<path d="M198.64 140.857H194.604C194.497 140.786 192.639 137.395 187.246 137.395C181.995 137.395 179.959 140.821 179.887 140.857H175.672V139.786H179.351C182.959 135.217 191.496 135.181 195.104 139.786H198.605V140.857H198.64Z" fill="black"/>
<path d="M194.354 99.5566H193.676H181.388H180.709C178.566 99.5566 176.816 101.163 176.816 103.162V109.444H177.887H179.102H179.923V103.162C179.923 102.341 180.566 101.663 181.352 101.663H193.64C194.426 101.663 195.069 102.341 195.069 103.162V109.444H195.89H197.105H198.176V103.162C198.212 101.163 196.462 99.5566 194.354 99.5566Z" fill="black"/>
<path d="M175.28 207.002H174.494C172.708 207.002 171.279 205.574 171.279 203.789H175.315V207.002H175.28Z" fill="#413854"/>
<path d="M173.279 203.825C173.351 205.61 174.28 207.002 175.387 207.002C176.494 207.002 177.423 205.61 177.494 203.825H173.279Z" fill="black"/>
<path d="M200.641 207.002H199.855C198.069 207.002 196.64 205.574 196.64 203.789H200.677V207.002H200.641Z" fill="#413854"/>
<path d="M198.641 203.825C198.712 205.61 199.641 207.002 200.748 207.002C201.855 207.002 202.784 205.61 202.856 203.825H198.641Z" fill="black"/>
<path d="M202.105 204.182H171.671C166.206 204.182 161.741 199.756 161.741 194.258V150.245C161.741 144.784 166.171 140.357 171.671 140.357H202.105C207.57 140.357 212 144.784 212 150.245V194.294C212 199.756 207.57 204.182 202.105 204.182Z" fill="#1B2B80"/>
<path d="M201.105 204.182H172.636C167.313 204.182 162.955 199.863 162.955 194.508V149.995C162.955 144.676 167.278 140.322 172.636 140.322H201.105C206.427 140.322 210.785 144.641 210.785 149.995V194.544C210.785 199.863 206.463 204.182 201.105 204.182Z" fill="#2846A6"/>
<path d="M175.208 146.426V200.862C176.208 200.791 176.994 199.97 176.994 198.97V148.353C176.994 147.318 176.208 146.497 175.208 146.426Z" fill="#1B2B80"/>
<path d="M198.104 146.426V200.862C199.104 200.791 199.89 199.97 199.89 198.97V148.353C199.89 147.318 199.104 146.497 198.104 146.426Z" fill="#1B2B80"/>
<path d="M193.532 146.426V200.862C194.532 200.791 195.318 199.97 195.318 198.97V148.353C195.318 147.318 194.532 146.497 193.532 146.426Z" fill="#1B2B80"/>
<path d="M188.925 146.426V200.862C189.925 200.791 190.711 199.97 190.711 198.97V148.353C190.746 147.318 189.925 146.497 188.925 146.426Z" fill="#1B2B80"/>
<path d="M184.352 146.426V200.862C185.352 200.791 186.138 199.97 186.138 198.97V148.353C186.173 147.318 185.352 146.497 184.352 146.426Z" fill="#1B2B80"/>
<path d="M179.78 146.426V200.862C180.78 200.791 181.566 199.97 181.566 198.97V148.353C181.566 147.318 180.78 146.497 179.78 146.426Z" fill="#1B2B80"/>
<path d="M210.106 131.897H195.068V137.43H210.106V131.897Z" fill="#1D266D"/>
<path d="M121.949 67.2872C121.663 67.2872 121.878 67.1445 121.878 67.1445C121.878 67.1445 127.2 67.4657 127.093 66.609C126.986 65.9665 123.699 66.3591 121.235 65.8594C121.02 65.8237 120.877 65.5738 121.056 65.4667C122.092 64.8956 123.556 63.9675 122.628 63.8961C121.235 63.8247 118.984 66.2878 117.948 66.2521C117.198 66.2164 100.124 67.7513 98.7666 67.1088C94.123 64.8599 85.5858 37.3739 82.3353 35.8032C79.0847 34.2326 79.049 44.0133 81.5137 51.1526L94.1944 72.3561C96.2305 74.9262 117.377 70.964 117.377 70.964C117.377 70.964 126.878 71.1424 126.771 70.607C126.736 70.25 123.985 70.3214 123.128 70.0002C122.985 69.9288 122.949 69.7146 123.128 69.7146C124.628 69.7146 127.664 69.6432 128.057 69.1791C128.522 68.6794 123.485 68.7865 122.342 68.6794C122.128 68.6794 122.163 68.4295 122.163 68.4295C122.163 68.4295 128.343 68.5366 128.629 68.0369C129.129 67.2872 123.521 67.2872 121.949 67.2872Z" fill="#FC7575"/>
<path d="M89.6221 64.7529L92.0511 68.7865L96.3732 64.503C95.8017 63.6463 95.2302 62.6111 94.6586 61.4688L89.6221 64.7529Z" fill="#FD5E5A"/>
<path d="M82.2992 35.7676C79.0487 34.197 79.013 43.9777 81.4777 51.1169L89.1575 68.1083C90.6578 66.8589 94.0512 64.2888 95.6944 63.3607C91.0507 55.2934 84.9425 37.0526 82.2992 35.7676Z" fill="#2A8001"/>
<path d="M81.0493 86.1705L85.1214 154.493C85.1214 154.493 81.1208 200.72 86.4074 202.04C90.0151 202.933 92.9085 204.717 94.4802 206.288C94.9445 206.752 86.6931 205.467 84.2999 205.895C78.7632 206.931 81.0493 201.148 81.0493 201.148C81.0493 201.148 74.4053 161.347 76.1914 154.493C77.9774 147.604 64.4751 105.982 64.4751 105.982L81.0493 86.1705Z" fill="#432C47"/>
<path d="M50.4728 108.659C48.1867 124.187 47.9367 134.146 47.9367 134.146C47.9367 134.146 45.9006 138.68 43.3645 146.854C40.7926 154.993 48.9368 195.972 48.9368 198.792C48.9368 201.576 46.4007 208.073 46.4007 208.073C46.4007 208.073 49.4726 211 52.7589 211C56.0809 211 51.473 197.507 51.473 197.507C51.473 197.507 55.5808 148.389 56.9739 141.749C58.367 135.146 63.5821 114.906 71.1191 107.374C71.1191 107.374 81.0494 90.3113 81.0494 86.2419C81.0494 86.2062 81.0494 86.1706 81.0494 86.1349C74.2982 85.064 67.4042 84.4214 60.2959 84.2787C56.8667 90.5612 52.0088 98.2359 50.4728 108.659Z" fill="#542F5A"/>
<path d="M82.2996 35.7676C77.1916 32.8048 71.0834 32.5549 71.0834 32.5549C71.0834 32.5549 63.6893 34.5896 60.1173 38.1592C56.5452 41.7288 64.9395 68.3225 63.6893 76.0329C63.2607 78.5673 61.939 81.2802 60.2959 84.3144C67.4042 84.4572 74.2982 85.0997 81.0494 86.1706C81.1208 81.6015 87.3719 38.7304 82.2996 35.7676Z" fill="#39B54A"/>
<path d="M71.9405 23.3453C71.9405 23.3453 69.6544 33.7329 71.619 37.2668C72.7263 39.2658 74.7624 39.6227 76.2983 39.587C77.4771 39.5513 78.3344 38.4805 78.1915 37.3025C77.8343 34.304 77.3342 28.5212 78.0486 26.0225C79.0488 22.4886 71.9405 23.3453 71.9405 23.3453Z" fill="#FC7575"/>
<path d="M72.0481 23.3096C73.2626 24.559 74.8343 25.8083 76.8346 26.9506C77.1561 27.1291 77.4776 27.3076 77.7633 27.4504C77.8348 26.9149 77.9062 26.4152 78.0134 26.0225C78.9778 22.7742 73.0483 23.2382 72.0481 23.3096Z" fill="#FD5E5A"/>
<path d="M17.5749 113.764C17.5749 113.264 17.9321 112.871 18.3965 112.871H32.5417C33.0061 112.871 33.3633 113.264 33.3633 113.764V138.715H35.8637V113.764C35.8637 111.765 34.3634 110.123 32.5417 110.123H18.3965C16.5747 110.123 15.0745 111.765 15.0745 113.764V138.715H17.5749V113.764Z" fill="#777087"/>
<path d="M8.43012 208.358C7.93003 208.358 7.53711 207.966 7.53711 207.466V202.504C7.53711 202.005 7.93003 201.612 8.43012 201.612C8.9302 201.612 9.32312 202.005 9.32312 202.504V207.466C9.32312 207.93 8.9302 208.358 8.43012 208.358Z" fill="#504C59"/>
<path d="M10.6802 208.358C10.1802 208.358 9.78723 207.966 9.78723 207.466V202.504C9.78723 202.005 10.1802 201.612 10.6802 201.612C11.1803 201.612 11.5732 202.005 11.5732 202.504V207.466C11.5732 207.93 11.1803 208.358 10.6802 208.358Z" fill="black"/>
<path d="M10.2518 202.933H9.32312V207.359H10.2518V202.933Z" fill="black"/>
<path d="M40.1135 208.358C39.6134 208.358 39.2205 207.966 39.2205 207.466V202.504C39.2205 202.005 39.6134 201.612 40.1135 201.612C40.6135 201.612 41.0065 202.005 41.0065 202.504V207.466C41.0065 207.93 40.6135 208.358 40.1135 208.358Z" fill="#504C59"/>
<path d="M42.3636 208.358C41.8635 208.358 41.4706 207.966 41.4706 207.466V202.504C41.4706 202.005 41.8635 201.612 42.3636 201.612C42.8637 201.612 43.2566 202.005 43.2566 202.504V207.466C43.2566 207.93 42.8637 208.358 42.3636 208.358Z" fill="black"/>
<path d="M41.9351 202.933H41.0063V207.359H41.9351V202.933Z" fill="black"/>
<path d="M44.4003 204.539L9.78737 202.897C7.96563 202.897 6.5011 201.433 6.5011 199.613L3.39343 141.928C3.39343 140.107 7.96563 137.716 9.78737 137.716H46.615C48.4367 137.716 49.9013 139.179 49.9013 141V199.649C49.8655 201.433 46.1864 204.539 44.4003 204.539Z" fill="#C12506"/>
<path d="M43.4004 204.682H6.57277C4.75103 204.682 3.2865 203.218 3.2865 201.398V142.785C3.2865 140.964 4.75103 139.501 6.57277 139.501H43.4004C45.2221 139.501 46.6867 140.964 46.6867 142.785V201.433C46.6509 203.218 45.1864 204.682 43.4004 204.682Z" fill="#FF6903"/>
<path d="M41.0067 204.682H11.7161V169.914C11.7161 164.131 16.3954 159.455 22.1821 159.455H30.5407C36.3274 159.455 41.0067 164.131 41.0067 169.914V204.682Z" fill="#DD370B"/>
<path d="M38.6135 204.682H11.7161V169.45C11.7161 163.917 16.2168 159.419 21.7535 159.419H28.576C34.1127 159.419 38.6135 163.917 38.6135 169.45V204.682Z" fill="#FF822E"/>
<path d="M48.1156 167.522C48.1513 167.522 48.2228 167.522 48.2585 167.522C50.7232 167.522 52.8307 170.449 52.8307 173.947C52.8307 177.446 50.7589 180.373 48.2585 180.373C48.2228 180.373 48.1513 180.373 48.1156 180.373V183.121C48.1513 183.121 48.2228 183.121 48.2585 183.121C52.2949 183.121 55.5454 179.016 55.5454 173.983C55.5454 168.95 52.2949 164.845 48.2585 164.845C48.2228 164.845 48.1513 164.845 48.1156 164.845V167.522Z" fill="black"/>
<path d="M26.0758 135.11C29.4692 135.11 32.3626 136.609 32.4697 138.43H35.2202C35.113 135.431 31.0766 133.04 26.0758 133.04C21.075 133.04 17.0386 135.431 16.9314 138.43H19.6461C19.789 136.645 22.6824 135.11 26.0758 135.11Z" fill="black"/>
<path d="M48.9366 159.241C48.9366 161.204 48.6508 162.774 48.2936 162.774C47.9364 162.774 47.6506 161.204 47.6506 159.241C47.6506 157.277 47.9364 155.707 48.2936 155.707C48.6508 155.707 48.9366 157.313 48.9366 159.241Z" fill="#544D49"/>
<path d="M31.5407 113.085H19.5744C18.8957 113.085 18.3242 112.514 18.3242 111.836V110.837C18.3242 110.158 18.8957 109.587 19.5744 109.587H31.5765C32.2551 109.587 32.8267 110.158 32.8267 110.837V111.836C32.7909 112.514 32.2551 113.085 31.5407 113.085Z" fill="#232322"/>
<path d="M34.1486 164.488H16.7885C16.6099 164.488 16.467 164.345 16.467 164.167V163.917C16.467 163.738 16.6099 163.596 16.7885 163.596H34.1486C34.3272 163.596 34.4701 163.738 34.4701 163.917V164.167C34.4701 164.345 34.3272 164.488 34.1486 164.488Z" fill="#171726"/>
<path d="M19.6819 164.952H17.5029C17.3958 164.952 17.3243 164.881 17.3243 164.773V163.381C17.3243 163.274 17.3958 163.203 17.5029 163.203H19.6819C19.789 163.203 19.8605 163.274 19.8605 163.381V164.773C19.8248 164.845 19.7533 164.952 19.6819 164.952Z" fill="#35354C"/>
<path d="M19.0746 164.202L21.325 165.13C21.4322 165.166 21.5393 165.095 21.5393 164.988V163.239C21.5393 163.131 21.4322 163.06 21.3607 163.096L19.1103 163.917C18.9317 163.988 18.9317 164.167 19.0746 164.202ZM20.9678 164.559L20.0034 164.202C19.8605 164.167 19.8962 163.952 20.0034 163.917L20.9678 163.667C21.075 163.631 21.1464 163.703 21.1464 163.81V164.381C21.1821 164.524 21.075 164.595 20.9678 164.559Z" fill="#464660"/>
<path d="M177.459 99.5566C177.351 99.6637 176.351 101.663 175.458 101.805C174.565 101.984 174.637 102.662 175.173 102.912C175.708 103.162 176.994 102.734 177.459 101.877C177.923 101.02 177.459 99.5566 177.459 99.5566Z" fill="#FD5E5A"/>
<path d="M184.21 102.698C184.21 102.698 184.174 101.841 183.71 99.7351C183.246 97.7004 181.46 97.8075 181.067 97.8075C180.352 97.8075 179.245 98.0574 178.602 98.3429C177.959 98.5928 177.566 98.8427 177.102 99.3067C176.387 100.021 177.102 105.768 177.459 105.803C177.709 105.839 177.959 105.768 178.066 105.482C178.173 105.161 178.531 100.842 178.531 100.842C178.531 100.842 178.781 105.803 179.424 106.41C180.031 107.017 180.281 106.446 180.245 106.053C180.245 105.661 180.424 100.306 180.424 100.306C180.424 100.306 181.174 105.518 181.567 105.911C181.96 106.303 182.638 105.946 182.388 103.769C182.245 102.519 182.317 100.056 182.317 100.056C182.317 100.056 183.103 103.626 183.71 104.233C184.353 104.804 184.21 102.698 184.21 102.698Z" fill="#FC7575"/>
<path d="M67.9046 73.784C67.4045 73.2842 64.7969 73.3199 63.8325 74.2837C62.868 75.2475 63.5824 76.3184 62.1893 77.7106C60.7962 79.1027 45.9009 69.9288 47.544 64.7172C47.6154 64.5387 47.6512 64.3602 47.7226 64.146C44.4721 64.2531 41.3287 65.3954 38.2567 66.7518C40.2928 71.1782 51.3661 79.067 55.1881 80.245C59.7603 81.6371 65.4399 80.5306 66.5115 79.4597C67.5831 78.4602 68.4404 74.3194 67.9046 73.784Z" fill="#FC7575"/>
<path d="M47.544 64.7528C47.6154 64.5744 47.6512 64.3959 47.7226 64.1817C44.4363 64.2888 41.3287 65.4311 38.2567 66.7875C38.6854 67.7156 39.5069 68.8222 40.5785 69.9645L47.4726 66.145C47.3654 65.6809 47.4011 65.2169 47.544 64.7528Z" fill="#FD5E5A"/>
<path d="M60.4746 52.1521C61.1175 52.1521 65.654 37.8737 63.5108 35.6962C61.3676 33.5544 50.2228 41.4433 44.1147 52.0093C38.0065 62.5754 36.6491 62.1827 37.6493 66.145C37.685 66.3592 37.9708 66.7519 38.0779 67.0017C41.1856 65.6096 45.0791 65.7881 48.3296 65.681C47.258 60.4693 50.9015 52.1521 60.4746 52.1521Z" fill="#8CC63F"/>
<path d="M78.834 9.67347C78.7274 9.56689 78.8695 9.709 78.834 9.67347V9.67347Z" fill="#FC7575"/>
<path d="M68.5469 15.8848C68.5827 14.6354 69.5114 12.6007 71.0474 11.0301C74.2979 7.63896 79.8703 9.1382 81.6206 13.7787C81.7992 14.2071 81.9063 14.6354 81.9421 15.0638C82.2635 17.7767 84.5854 18.7048 84.5854 18.7048C84.5854 18.7048 84.6211 19.3473 84.0496 19.7043C83.4423 20.0612 83.6209 20.3468 83.9067 20.7038C84.2282 21.0607 84.4425 21.0607 84.371 21.4177C84.2996 21.7746 83.6924 22.0602 83.6924 22.0602C83.6924 22.0602 84.2996 22.56 84.1924 22.9526C84.0853 23.3453 83.8352 23.381 83.8352 23.381C83.8352 23.381 83.3351 23.8093 83.5495 24.202C83.7638 24.5946 83.6209 25.1301 83.5138 25.5227C83.3351 26.0582 82.0135 28.8068 76.1554 25.7726C70.2972 22.7027 68.4398 18.7048 68.5469 15.8848Z" fill="#FC7575"/>
<path d="M80.9777 14.8853C80.9777 14.8853 78.9417 15.1352 78.1915 17.4554C78.1915 17.4554 79.4417 15.6349 80.8706 15.3493L80.9777 14.8853Z" fill="#18287D"/>
<path d="M81.4783 16.456C81.4783 16.456 81.9784 16.92 81.8712 17.277C81.7998 17.6339 81.5497 17.7053 81.5497 17.7053L81.4783 16.456Z" fill="#18287D"/>
<path d="M80.2639 17.6339C80.2639 17.6339 81.1569 16.7058 81.9071 16.2774C82.6572 15.8491 82.7643 15.4564 82.7643 15.4564C82.7643 15.4564 82.0499 16.0633 81.3355 16.4202C80.6211 16.7772 80.2639 17.6339 80.2639 17.6339Z" fill="#0F1D5B"/>
<path d="M82.0491 21.8461C82.5492 22.096 83.1207 22.1673 83.6923 22.0603C83.1565 22.203 82.5492 22.203 81.9777 21.9889C81.942 21.9532 81.9062 21.9175 81.9062 21.8818C81.942 21.8104 81.9777 21.8104 82.0491 21.8461C82.0491 21.8104 82.0491 21.8104 82.0491 21.8461Z" fill="#0F1D5B"/>
<path d="M82.1921 9.20962C81.0491 6.53241 74.548 6.92507 70.8331 7.5676C67.1182 8.21013 62.8317 11.1729 62.5103 14.3856C62.2959 16.3132 63.1889 20.5967 63.9391 23.6666C62.9746 30.199 64.332 30.4845 65.2964 37.3025C65.9751 42.1572 69.69 43.5136 69.69 43.5136C69.69 43.5136 67.7611 40.7293 69.2257 39.2658C70.6902 37.8022 74.7623 35.0179 73.0477 32.3764C70.8331 28.9496 75.4053 26.9506 72.3333 21.2392C73.4049 20.4182 74.1908 21.025 74.548 19.4901C75.0838 17.3126 71.8333 14.0286 75.4053 14.0286C78.9773 14.0286 80.5847 11.9225 80.5847 11.9225C80.5847 11.9225 83.3352 11.8868 82.1921 9.20962Z" fill="#653870"/>
<path d="M70.798 44.3347C70.798 44.3347 74.0128 47.7615 72.9769 50.6529C71.941 53.5086 73.1912 56.3643 73.1912 56.3643C73.1912 56.3643 70.798 55.6146 70.798 53.9369C70.798 52.2592 71.1909 50.3673 71.1909 50.3673C71.1909 50.3673 69.5835 53.58 69.9407 55.4719L67.476 55.1506C67.476 55.1506 69.7264 50.8671 69.7264 50.3673C69.7264 49.9033 67.0474 52.9017 67.0474 52.9017L65.4399 50.3673C65.4399 50.3673 68.5476 49.7962 69.2977 48.2255C70.0836 46.6192 70.798 44.3347 70.798 44.3347Z" fill="#653870"/>
<path d="M69.3332 41.3362C69.1189 41.5503 67.5115 43.0496 67.5115 43.0496L70.2619 45.941L71.6908 45.4412L69.3332 41.3362Z" fill="#F9B406"/>
<path d="M150.525 21.025C150.525 21.025 151.061 20.0613 151.49 20.204C151.954 20.3468 152.061 22.2744 151.24 23.0597C150.418 23.8807 149.739 22.56 150.525 21.025Z" fill="#FD5E5A"/>
<path d="M46.6512 142.785L46.7227 146.104L46.7584 149.424C46.7941 151.53 47.0442 162.596 47.0799 195.686V199.006C47.0799 201.219 47.1156 201.79 46.9727 202.397C46.5798 203.932 45.151 205.11 43.5793 205.182C43.5793 205.182 41.0432 205.182 41.0789 205.182C38.0426 205.146 9.35924 204.967 6.35873 204.825C4.67988 204.717 3.25107 203.325 3.28679 201.469C3.35823 203.29 4.82276 204.61 6.39446 204.646C6.85882 204.646 14.6458 204.539 14.6458 204.539L27.8624 204.396C32.5774 204.325 43.365 204.325 43.365 204.325C43.5436 204.289 43.7222 204.325 44.258 204.182C45.151 203.896 45.9011 203.111 46.1154 202.183C46.4726 200.898 45.8654 192.117 46.5798 146.14L46.6512 142.785Z" fill="#562504"/>
</g>
<defs>
<clipPath id="clip0">
<rect width="212" height="211" fill="white"/>
</clipPath>
</defs>
</svg>
