<svg width="288" height="210" viewBox="0 0 288 210" fill="none" xmlns="http://www.w3.org/2000/svg">
<g clip-path="url(#clip0)">
<path d="M280.074 205.434C280.074 207.956 222.14 210 150.668 210C79.1949 210 21.2615 207.956 21.2615 205.434C21.2615 202.913 79.1949 200.868 150.668 200.868C222.14 200.868 280.074 202.913 280.074 205.434Z" fill="#EDEDED"/>
<path d="M222.345 10.9719C230.781 5.5541 238.878 10.2223 237.415 14.3112C238.265 10.3245 230.407 7.01929 223.705 12.7097L222.345 10.9719Z" fill="#18287D"/>
<path d="M237.415 14.3113C237.415 14.3113 236.939 11.8238 235.136 11.3809C233.333 10.9379 228.332 10.4609 225.678 14.3113C223.025 18.1617 218.875 18.0935 218.875 18.0935C218.875 18.0935 220.338 19.0817 221.222 19.9335C221.222 19.9335 222.753 20.2061 224.59 18.4683C224.59 18.4683 224.42 19.8654 221.392 20.7854C221.392 20.7854 223.263 22.2506 225.236 21.7054C227.175 21.1943 228.162 20.0698 228.162 20.0698L226.937 22.7958C226.937 22.7958 228.4 23.1706 230.169 21.4669C231.938 19.8313 237.415 14.3113 237.415 14.3113Z" fill="#18287D"/>
<path d="M239.116 15.2994C239.116 15.2994 238.572 13.9023 237.415 13.9023C236.258 13.9023 232.992 14.4816 232.72 16.049C232.448 17.6164 234.455 18.1276 236.394 18.1276C238.333 18.1276 239.116 15.2994 239.116 15.2994Z" fill="#FF9739"/>
<path d="M240.544 47.4996C240.544 47.4996 244.729 46.9885 246.498 48.6581C248.267 50.3278 250.75 77.3487 257.554 78.7458C257.554 78.7458 265.684 76.6332 269.324 74.0435C273.338 71.1813 274.529 68.6598 274.529 67.3309C274.529 66.002 276.162 63.8212 276.706 63.8212C277.25 63.8212 277.182 64.8094 277.182 64.8094C277.182 64.8094 281.605 59.9367 282.353 60.6182C283.067 61.2997 279.87 64.4686 279.87 64.4686C279.87 64.4686 283.34 60.6182 284.054 60.6182C284.768 60.6182 283.816 62.4582 282.795 63.4123C282.795 63.4123 284.428 62.4923 284.904 63.4123C285.381 64.3323 281.196 68.2849 280.108 70.6701C279.019 73.0213 277.352 72.1013 276.842 72.9191C268.848 85.0836 254.56 88.9681 251.124 84.0614C247.654 79.0865 234.897 48.8967 240.544 47.4996Z" fill="#FD5E5A"/>
<path d="M246.497 48.6581C244.728 46.9885 240.544 47.4996 240.544 47.4996C238.061 48.1129 239.115 54.2122 241.395 61.3338C243.878 60.2775 246.293 58.7782 248.811 57.7901C247.824 53.0537 247.11 49.2374 246.497 48.6581Z" fill="#0F1D5B"/>
<path d="M281.06 63.1738C280.38 63.8894 279.87 64.4346 279.87 64.4346C279.87 64.4346 280.448 63.8553 281.06 63.1738Z" fill="#CD3179"/>
<path d="M280.516 58.5397L275.311 69.0346L279.189 70.8746L286.877 60.6864L280.516 58.5397Z" fill="#749CFE"/>
<path d="M288 60.4479L281.605 58.1649L280.516 58.5397L286.877 60.6864L279.189 70.8746L280.108 70.6361L288 60.4479Z" fill="#2846A6"/>
<path d="M276.706 63.8212C276.706 63.8212 277.795 63.8893 278.101 64.8775C278.407 65.8656 278.101 66.2064 277.659 66.2064C277.216 66.2064 276.876 65.2182 276.502 65.2182C276.128 65.2182 274.937 65.8997 274.937 65.8997C274.937 65.8997 275.856 64.0597 276.706 63.8212Z" fill="#FD5E5A"/>
<path d="M184.516 190.101L182.237 192.827C182.237 192.827 181.42 193.508 183.053 195.416C184.686 197.324 185.162 199.914 185.162 201.107C185.162 202.299 188.088 203.219 188.088 203.219C188.088 203.219 186.183 195.28 186.999 192.929C187.408 191.702 196.49 180.083 205.539 168.532C203.09 166.862 200.777 164.954 197.987 163.591C191.864 175.517 184.516 190.101 184.516 190.101Z" fill="#FD5E5A"/>
<path d="M241.735 115.478C235.305 113.774 229.148 111.082 223.807 107.198C220.065 117.147 216.833 129.278 216.833 141.306C216.833 141.306 209.111 143.01 205.641 149.041C204.417 151.188 201.219 156.946 197.817 163.523C200.164 165.737 203.09 167.646 205.539 169.315C213.942 158.582 222.378 147.065 223.909 144.816C226.188 141.647 235.237 126.927 241.735 115.478Z" fill="#6068B2"/>
<path d="M242.381 47.8404C241.871 46.8863 241.497 45.9663 241.395 45.0803C241.395 45.0803 243.98 39.3558 245.069 36.3573C246.157 33.3588 239.15 32.6091 239.15 32.6091C239.15 32.6091 237.721 41.0255 233.741 44.8418C236.224 47.5337 239.218 47.8744 242.381 47.8404Z" fill="#FC7575"/>
<path d="M239.116 32.6091C239.116 32.6091 238.945 33.6654 238.537 35.1988C239.626 36.9706 241.225 38.4018 243.198 39.2195C243.436 39.3218 243.606 39.3899 243.844 39.4921C244.32 38.3677 244.763 37.2432 245.069 36.3914C246.123 33.3928 239.116 32.6091 239.116 32.6091Z" fill="#FD5E5A"/>
<path d="M221.936 105.46C227.277 109.345 235.305 113.774 241.735 115.478C242.551 114.013 243.368 112.616 244.082 111.287C246.123 107.573 247.552 103.62 248.334 99.5311C241.905 98.3726 235.884 95.1696 229.93 93.2615C228.059 97.0097 223.977 100.042 221.936 105.46Z" fill="#757AD8"/>
<path d="M261.432 171.36C258.268 172.212 255.207 173.336 252.349 174.801C258.677 188.022 265.923 202.538 265.923 202.538C265.923 202.538 264.494 205.945 265.038 206.422C265.548 206.933 271.059 206.627 271.944 206.627C272.794 206.627 278.135 206.899 278.135 206.899L270.141 203.253C269.46 202.401 265.344 186.591 261.432 171.36Z" fill="#FC7575"/>
<path d="M254.253 143.01C253.335 139.466 245.715 117.25 241.973 106.312C240.544 102.121 236.224 99.4629 231.597 99.9399C225.746 100.519 219.282 103.416 221.562 113.672C221.562 113.672 240.782 140.114 242.007 143.351C243.231 146.554 240.782 147.269 243.47 155.072C244.524 158.139 247.144 167.441 251.26 176.028C254.117 174.563 258.438 172.177 261.601 171.36C258.199 158.071 254.832 145.225 254.253 143.01Z" fill="#757AD8"/>
<path d="M254.254 143.01C252.791 138.955 246.362 121.85 241.565 106.584C240.442 102.632 236.156 99.6674 231.598 99.94C236.19 99.1904 240.851 101.848 242.483 106.312C245.783 115.171 252.213 133.98 254.254 143.01Z" fill="#9195E0"/>
<path d="M281.06 59.4938L285.618 61.0271L279.563 69.682L276.57 68.1827L279.495 69.4775L285.346 61.0953L281.06 59.4938Z" fill="white"/>
<path d="M279.801 71.1812C279.801 71.1812 280.89 70.0909 282.047 69.3753C283.203 68.6597 284.666 66.7857 284.224 66.2064C283.781 65.6271 279.665 65.8657 279.189 66.7175C278.713 67.5694 281.536 67.1605 281.74 67.3649C281.945 67.5353 279.801 71.1812 279.801 71.1812Z" fill="#FD5E5A"/>
<path d="M212.819 58.71C212.683 58.8122 199.28 69.1367 196.66 83.2435C196.626 83.3457 196.728 83.448 196.83 83.448H196.864C196.966 83.448 197.034 83.3798 197.068 83.3117C199.654 69.3412 212.955 59.0848 213.091 58.9826C213.159 58.9144 213.193 58.8122 213.125 58.71C213.023 58.6759 212.887 58.6419 212.819 58.71Z" fill="#111F59"/>
<path d="M247.076 21.1601C247.076 21.1601 251.158 20.8194 251.804 23.8179C252.451 26.8165 250.001 29.5765 250.614 30.735C251.226 31.8935 252.587 32.5069 252.927 32.6772C253.301 32.8135 252.621 33.8017 252.009 34.0402C252.009 34.0402 251.736 34.5854 251.906 34.7558C252.077 34.9261 252.485 35.1987 252.349 35.6076C252.213 35.9824 251.498 36.1869 251.498 36.1869C251.498 36.1869 252.179 36.8684 251.838 37.2091C251.498 37.5499 250.75 37.7202 250.75 37.7202C250.75 37.7202 250.92 39.2536 250.172 39.6965C249.389 40.1395 247.076 39.5602 245.069 38.7425C244.593 38.538 243.912 38.2995 243.164 37.9928C239.456 36.5617 236.972 33.1543 237.04 29.372C237.142 24.6357 238.945 19.3883 247.076 21.1601Z" fill="#FC7575"/>
<path d="M245.069 22.3187C245.341 22.5572 246.294 23.3068 246.294 25.1468C246.294 26.9869 246.056 27.2254 246.056 27.2254H248.505C248.505 27.2254 249.015 24.9083 248.777 24.2609C248.777 24.2609 249.083 26.1009 249.083 27.2254H255.071C255.071 27.2254 256.295 20.172 250.512 16.2194C244.729 12.2667 237.993 15.7764 237.993 15.7764C237.993 15.7764 233.435 15.3334 231.666 18.6727C229.897 21.9779 229.217 30.9395 232.074 34.0062C233.469 35.5054 240.375 36.2551 240.953 32.4387C241.531 28.6224 243.47 27.055 243.47 27.055C243.47 27.055 244.559 28.0091 244.559 29.9854C244.559 29.9854 244.967 27.3276 244.593 25.0446C244.253 22.7616 245.069 22.3187 245.069 22.3187Z" fill="#2846A6"/>
<path d="M250.002 35.3351C249.627 35.7099 250.92 36.0507 251.532 36.1529C251.056 36.1188 249.9 35.9825 249.764 35.5396C249.73 35.3692 249.832 35.0966 249.968 35.1988C250.036 35.2329 250.036 35.301 250.002 35.3351Z" fill="#2846A6"/>
<path d="M250.24 30.2921C250.24 30.2921 250.41 30.8714 249.798 31.144L250.24 30.2921Z" fill="#2846A6"/>
<path d="M248.437 29.9854C249.322 30.1217 250.921 30.2239 251.533 29.6106C251.159 30.4284 249.39 30.5306 248.437 29.9854Z" fill="#0F1D5B"/>
<path d="M253.778 59.5619C251.77 57.6537 244.933 52.5426 242.381 47.8403C239.218 47.8744 236.224 47.5337 233.707 44.8418C233.264 45.2507 232.788 45.6596 232.278 45.9322C227.175 48.8626 232.278 64.7071 232.278 64.7071C232.278 64.7071 236.258 83.4139 234.897 84.6747C234.455 85.0836 230.815 88.2525 228.264 93.2273C232.992 97.6911 244.184 102.189 250.614 103.347C250.784 102.393 251.736 73.2257 252.995 70.3294C254.866 66.1042 256.193 61.8449 253.778 59.5619Z" fill="#FFCB57"/>
<path d="M12.3486 165.022C4.45631 160.32 1.02045 151.801 4.69444 145.702C8.36843 139.602 17.8596 138.069 26.1601 142.124L27.1806 140.42C17.8596 135.854 7.14376 137.694 2.89146 144.748C-1.36084 151.801 2.4152 161.444 11.328 166.726L12.3486 165.022Z" fill="black"/>
<path d="M12.3486 165.022C4.45631 160.32 1.02045 151.801 4.69444 145.702C8.36843 139.602 17.8596 138.069 26.1601 142.124L27.1806 140.42C17.8596 135.854 7.14376 137.694 2.89146 144.748C-1.36084 151.801 2.4152 161.444 11.328 166.726L12.3486 165.022Z" fill="black"/>
<path d="M15.2743 163.454C6.70162 158.48 2.00708 150.949 4.79659 146.315C7.5861 141.681 16.8391 141.647 25.7179 146.111L26.5003 144.816C16.5329 139.807 6.12331 139.943 2.89156 145.259C-0.340193 150.608 4.83061 159.161 14.4918 164.715L15.2743 163.454Z" fill="black"/>
<path d="M0.510367 154.186L6.08939 152.994C6.08939 152.994 4.6266 146.451 12.1787 143.18L9.96749 137.933C9.96749 137.933 4.96678 139.125 1.36083 145.157C-1.0885 149.245 0.510367 154.186 0.510367 154.186Z" fill="#4C3115"/>
<path d="M5.40888 153.164L6.08925 153.028C6.08925 153.028 4.62646 146.485 12.1785 143.214L11.9744 142.703C4.49038 145.599 5.0687 151.528 5.40888 153.164Z" fill="#38200A"/>
<path d="M90.6593 105.153L66.2 145.702L62.2539 143.589L86.7132 103.007L90.6593 105.153Z" fill="#474644"/>
<path d="M86.7131 103.007L89.0264 104.267L64.5671 144.816L66.2 145.702L90.6593 105.153L86.7131 103.007Z" fill="#282725"/>
<path d="M68.2072 142.362C69.4319 140.352 68.7515 137.797 66.7104 136.536C66.2002 136.229 65.6899 135.956 65.1796 135.65C47.49 126.109 24.9698 131.936 14.8664 148.666C4.76289 165.431 10.9202 186.727 28.6098 196.302C29.1201 196.575 29.6644 196.847 30.2087 197.12C32.3859 198.176 35.0393 197.393 36.264 195.382L68.2072 142.362Z" fill="#6BA843"/>
<path d="M66.6427 136.195C57.7639 130.879 46.0956 129.278 35.1757 132.89C46.1636 129.653 57.3217 131.22 66.3706 136.638C68.3436 137.728 68.99 139.875 68.2756 141.647C68.0375 142.294 48.9531 173.54 36.2642 195.382C42.9319 184.751 68.3776 143.01 68.8199 141.851C69.6023 139.875 68.8879 137.456 66.6427 136.195Z" fill="#31511C"/>
<path d="M66.7104 136.536C66.2001 136.229 65.6898 135.956 65.1795 135.65C54.974 130.13 43.1696 129.755 33.0661 133.605C38.8833 133.605 44.8025 134.934 50.2794 137.694C51.0959 138.103 51.9123 138.546 52.6948 139.023C54.7699 140.25 55.3822 142.839 54.1916 144.85L24.6636 193.849C25.9223 194.735 27.215 195.552 28.6097 196.302C29.12 196.575 29.6643 196.847 30.2086 197.12C32.3858 198.176 35.0392 197.392 36.2639 195.382L68.2412 142.362C69.4318 140.352 68.7855 137.796 66.7104 136.536Z" fill="#5A9136"/>
<path d="M65.1796 147.405C65.0095 147.303 64.8734 147.235 64.7033 147.133C51.3681 139.943 34.9372 143.419 28.0314 154.902C21.0917 166.385 26.2965 181.514 39.6317 188.738C39.8018 188.84 39.9719 188.908 40.142 188.976L65.1796 147.405Z" fill="#282B25"/>
<path d="M64.7034 147.133C54.4978 141.613 42.4553 142.362 34.2909 148.189C41.9791 144.952 51.5382 145.293 59.9068 149.791C60.0769 149.893 60.247 149.961 60.383 150.063L37.7608 187.613C38.3731 187.988 38.9854 188.363 39.6318 188.704C39.8019 188.806 39.972 188.874 40.1421 188.942L65.2136 147.371C65.0095 147.303 64.8394 147.201 64.7034 147.133Z" fill="#0B0C0A"/>
<path d="M78.0046 117.488L81.9508 119.601L90.6595 105.153L85.2506 102.223L78.0046 117.488Z" fill="black"/>
<path d="M37.5564 191.089C41.1963 193.065 42.455 197.427 40.3799 200.868C38.3048 204.31 33.6783 205.502 30.0383 203.526C26.3983 201.55 25.1396 197.188 27.2148 193.747C29.3239 190.339 33.9504 189.112 37.5564 191.089Z" fill="black"/>
<path d="M36.0595 193.61C38.2027 194.769 38.9511 197.358 37.7264 199.403C36.5018 201.447 33.7463 202.163 31.6031 201.004C29.46 199.846 28.7116 197.256 29.9362 195.212C31.1269 193.167 33.8824 192.452 36.0595 193.61Z" fill="#474644"/>
<path d="M150.566 191.77C153.015 193.201 153.866 196.438 152.471 198.96C151.076 201.481 147.981 202.367 145.531 200.936C143.082 199.505 142.231 196.268 143.626 193.747C145.021 191.191 148.151 190.305 150.566 191.77Z" fill="black"/>
<path d="M143.286 194.871L122.024 184.683C119.133 183.286 117.976 179.946 119.439 177.221L142.402 134.321C147.674 124.474 160.363 120.555 170.739 125.53L184.482 132.106L152.437 192.009C150.736 195.212 146.62 196.473 143.286 194.871Z" fill="#CD3179"/>
<path d="M170.501 158.241L138.66 142.976C136.448 141.92 135.564 139.364 136.686 137.285L141.415 128.426C145.395 120.964 155.056 117.965 162.949 121.748L184.482 132.072L170.501 158.241Z" fill="#CD3179"/>
<path d="M145.123 195.757L139.204 192.929C137.061 191.907 136.21 189.453 137.299 187.443L163.459 138.546C167.337 131.322 176.658 128.426 184.312 132.072L184.482 132.14L151.484 193.781C150.328 195.995 147.47 196.847 145.123 195.757Z" fill="#A02060"/>
<path d="M196.763 106.278L191.184 105.937C189.79 105.869 188.463 106.55 187.817 107.743L169.617 141.306H173.631L191.32 108.629C191.967 107.436 193.294 106.721 194.688 106.857L196.389 106.993L177.543 141.272L179.584 141.306L197.444 108.561C197.886 107.743 197.58 106.755 196.763 106.278Z" fill="#552E5D"/>
<path d="M191.184 105.937C187.068 105.801 188.53 108.936 169.582 141.306C171.215 138.069 186.863 107.982 188.564 106.687C189.313 106.107 190.265 105.869 191.184 105.937Z" fill="#552E5D"/>
<path d="M165.704 141.204L179.584 141.306L156.826 183.831H142.572L165.704 141.204Z" fill="#552E5D"/>
<path d="M138.013 188.601C141.211 190.51 142.333 194.735 140.496 198.074C138.659 201.413 134.577 202.572 131.379 200.664C128.182 198.756 127.059 194.53 128.896 191.191C130.733 187.886 134.815 186.727 138.013 188.601Z" fill="black"/>
<path d="M136.653 191.055C138.558 192.179 139.204 194.701 138.115 196.677C137.027 198.653 134.611 199.335 132.706 198.21C130.801 197.086 130.155 194.564 131.244 192.588C132.332 190.612 134.748 189.93 136.653 191.055Z" fill="#474644"/>
<path d="M131.107 36.5959C131.107 36.5959 128.794 35.3351 122.637 40.4122C110.492 50.396 93.7892 69.7502 88.1081 98.1682L82.2229 104.336C82.2229 104.336 80.624 104.881 83.5156 105.801C83.5156 105.801 84.23 107.198 85.1485 107.027C85.1485 107.027 85.8629 107.777 86.6113 107.505C87.3597 107.232 87.1216 106.346 87.1216 106.346L90.6595 98.1682C90.6595 98.1682 103.689 75.168 110.288 67.1264C116.854 59.0508 136.346 40.9914 131.107 36.5959Z" fill="#FD5E5A"/>
<path d="M104.198 58.1649L113.179 67.0583C113.179 67.0583 131.005 45.7619 131.992 41.6048C132.978 37.4477 132.162 36.0166 130.189 36.1188C121.82 36.4596 104.198 58.1649 104.198 58.1649Z" fill="#FB8603"/>
<path d="M138.693 38.7425C138.693 38.7425 134.509 35.3009 129.168 37.0387C123.827 38.7425 114.404 65.7975 111.887 78.6435C111.512 80.6198 107.77 96.3621 108.927 100.417C115.356 122.736 140.292 156.776 140.292 156.776L157.233 201.55C157.233 201.55 155.804 206.286 156.315 207.478C156.825 208.705 159.512 207.478 161.724 207.478C163.969 207.478 169.718 208.467 170.16 208.467C170.602 208.467 174.821 207.41 174.821 207.41C174.821 207.41 165.704 206.115 162.608 200.732C159.512 195.348 152.879 150.881 152.879 150.881C152.879 150.881 140.7 89.6495 140.292 83.5502C139.884 77.4509 145.054 44.6373 142.911 41.7069C140.768 38.7425 138.693 38.7425 138.693 38.7425Z" fill="#18287D"/>
<path d="M108.961 100.417L109.369 145.736C109.369 145.736 92.6664 190.373 90.2511 192.656C87.8358 194.939 81.7805 199.88 81.7805 199.88C81.7805 199.88 85.7947 202.572 88.142 204.48C91.1356 206.899 93.687 206.797 100.933 206.797C108.179 206.797 98.8578 205.025 97.1569 203.424C94.0272 200.459 95.7961 193.985 95.7961 193.985L122.467 152.108C122.467 152.108 135.155 115.716 140.326 114.353L141.619 95.783L108.961 100.417Z" fill="#1D329E"/>
<path d="M140.088 114.149C134.883 116.057 123.725 146.928 121.99 151.903C120.901 153.641 105.049 178.515 95.7278 193.951C103.994 181.684 116.649 161.921 122.84 152.278L122.874 152.244C137.332 111.968 140.326 114.899 140.53 114.49C140.53 114.456 141.04 104.744 141.176 101.61C140.802 105.767 140.462 109.958 140.088 114.149Z" fill="#749CFE"/>
<path d="M116.003 148.291L116.037 148.223C116.241 146.417 121.378 104.301 121.378 101.678C121.378 101.541 121.276 101.439 121.14 101.439C121.004 101.439 120.901 101.541 120.901 101.678C120.901 104.199 115.765 146.588 115.561 148.121L92.6322 191.668L91.3395 190.816C91.2715 190.952 91.2034 191.089 91.1354 191.225L95.7959 194.224C95.7959 194.053 95.7619 193.917 95.7619 193.917L95.898 193.712L93.0744 191.872L116.003 148.291Z" fill="#2846A6"/>
<path d="M143.354 83.4821C142.946 77.3828 145.055 44.6033 142.912 41.6729C140.769 38.7425 138.694 38.7425 138.694 38.7425C138.694 38.7425 135.02 33.7336 128.624 35.8803C123.317 37.6521 111.513 65.0479 108.995 77.8939C108.621 79.8702 105.083 100.621 106.24 104.676C106.24 104.71 147.981 107.198 147.981 107.198C146.756 100.519 143.456 85.0154 143.354 83.4821Z" fill="#FFCB57"/>
<path d="M140.564 101.337C142.503 100.826 144.272 100.213 146.279 98.6451C146.109 97.8614 145.939 97.0436 145.803 96.2258C134.237 103.245 118.214 101.848 106.24 97.5547C106.138 98.577 106.07 99.531 106.036 100.417C109.199 101.337 112.805 102.121 116.615 102.598C116.888 103.722 117.466 104.676 118.316 105.46C124.235 105.801 131.243 106.244 136.992 106.584C139.102 105.664 140.564 103.654 140.564 101.337Z" fill="#ECAB01"/>
<path d="M141.619 27.6683C141.619 27.6683 134.645 33.5632 132.876 36.3232C131.992 37.7203 135.87 40.1055 139.204 41.6729C140.394 42.2181 141.823 41.8092 142.469 40.7529L147.98 31.655L141.619 27.6683Z" fill="#FC7575"/>
<path d="M141.619 27.6683C141.619 27.6683 140.326 28.7587 138.727 30.1898C140.394 31.621 141.312 34.5173 143.115 37.1069C143.388 37.5158 143.694 37.8225 144.068 38.0951L147.98 31.655L141.619 27.6683Z" fill="#FD5E5A"/>
<path d="M141.142 5.00888C140.326 7.12149 140.122 10.0178 141.653 11.8578L141.517 11.96C139.441 10.2563 139.067 7.08742 139.441 4.56592L141.142 5.00888Z" fill="#111F59"/>
<path d="M136.108 8.96155C137.638 10.1201 140.972 12.3008 142.877 11.9601L142.911 12.1305C140.938 12.6416 137.264 10.6653 135.563 9.60896L136.108 8.96155Z" fill="#111F59"/>
<path d="M153.015 11.7215C153.015 11.7215 157.268 14.0045 157.268 18.5705C157.268 23.1364 155.158 30.0194 155.158 30.0194L153.321 29.5765C153.321 29.5765 153.696 30.8031 153.049 31.4165C153.049 31.4165 153.253 31.8254 153.049 32.0298C152.845 32.2343 151.552 32.6772 150.838 33.9039C150.124 35.1306 145.633 35.9824 143.66 33.4269C141.687 30.8713 141.585 28.7928 139.51 27.8046C137.401 26.8165 138.83 7.49632 153.015 11.7215Z" fill="#FC7575"/>
<path d="M148.354 14.3793C148.354 14.3793 154.545 19.5927 157.811 19.5927C161.077 19.5927 166.962 15.7764 165.567 11.1082C165.193 9.81337 163.254 6.23557 163.254 6.23557C163.254 6.23557 161.451 12.1645 154.749 10.563L157.845 6.23557L155.09 4.29333L149.511 7.70077C149.511 7.70077 147.027 5.58816 144 7.05335C140.972 8.51855 141.652 11.926 141.652 11.926C141.652 11.926 135.121 11.4489 134.032 15.0267C132.91 18.6045 134.032 22.2846 134.032 25.0446C134.032 27.8046 138.863 30.0876 138.863 30.0876L141.652 27.6342C141.652 27.6342 140.802 24.3631 142.095 21.6031C143.387 18.8431 144.578 21.0238 144.578 21.0238L148.354 14.3793Z" fill="#18287D"/>
<path d="M143.898 21.1261C143.898 21.1261 143.694 18.1276 140.496 17.9231C137.299 17.7187 136.55 21.6372 138.081 23.1024C139.612 24.5335 141.891 24.2609 142.81 23.375C143.762 22.4891 143.898 21.1261 143.898 21.1261Z" fill="#FC7575"/>
<path d="M142.878 21.4328C142.878 21.4328 143.048 19.4224 140.939 19.695C138.83 19.9335 139.068 22.3868 140.632 22.6594C142.197 22.932 142.878 21.4328 142.878 21.4328Z" fill="#FD5E5A"/>
<path d="M153.015 31.4165C150.804 30.9054 151.519 30.5646 151.655 30.7009C152.063 31.0417 152.539 31.2461 153.015 31.4165Z" fill="#2846A6"/>
<path d="M153.321 29.5765C152.844 29.4743 152.572 29.2357 152.572 28.6905C152.606 27.9068 152.912 28.2135 152.878 28.3498C152.674 28.9291 152.606 29.338 153.321 29.5765Z" fill="#2846A6"/>
<path d="M142.912 21.7395C142.912 21.1943 142.435 20.7513 141.857 20.7513C141.279 20.7513 140.803 21.1943 140.803 21.7736C140.803 22.3188 141.279 22.7958 141.857 22.7958C141.959 22.7958 142.027 22.7958 142.129 22.7617V24.8743H142.946L142.912 21.7395Z" fill="white"/>
<path d="M154.512 24.0565C154.24 24.4995 153.764 24.704 153.457 24.5336C153.151 24.3632 153.083 23.8862 153.355 23.4432C153.627 23.0002 154.104 22.7958 154.41 22.9662C154.75 23.1365 154.784 23.6136 154.512 24.0565Z" fill="#2846A6"/>
<path d="M151.552 21.4328C152.811 20.3765 154.954 19.252 155.804 20.649C155.974 20.9216 155.532 21.1261 155.396 20.8876C154.75 19.8313 152.777 21.0239 151.892 21.7735C151.62 21.9779 151.314 21.6372 151.552 21.4328Z" fill="#2846A6"/>
<path d="M30.1744 107.13C35.3792 102.938 45.8909 106.789 46.3331 106.959C46.4352 106.993 46.4692 107.096 46.4352 107.198C46.4012 107.3 46.2991 107.334 46.1971 107.3C46.095 107.266 35.4472 103.381 30.3785 107.402C30.2424 107.539 30.0043 107.3 30.1744 107.13Z" fill="#111F59"/>
<path d="M12.6212 127.165C22.9628 113.536 38.101 120.351 38.2371 120.419C38.4412 120.521 38.3051 120.828 38.067 120.725C37.9309 120.657 23.0649 113.979 12.8933 127.37C12.8253 127.438 12.7232 127.472 12.6552 127.404C12.5872 127.336 12.5532 127.234 12.6212 127.165Z" fill="#111F59"/>
<path d="M167.745 13.6638C169.854 6.30377 161.247 0.374838 161.145 0.30669C160.941 0.170392 161.145 -0.102202 161.349 0.034095C161.451 0.102244 170.262 6.16747 168.085 13.766C168.017 13.9705 167.677 13.8683 167.745 13.6638Z" fill="#18287D"/>
<path d="M136.21 44.1945C141.278 48.7604 119.983 62.4242 113.077 70.2272C106.171 78.0303 94.333 101.814 94.333 101.814L89.0602 109.276C89.0602 109.276 88.5839 109.447 87.8015 109.685C87.0191 109.958 86.3387 109.174 86.3387 109.174C85.4202 109.31 84.7739 107.879 84.7739 107.879C83.6853 107.505 83.243 107.198 83.141 106.959C82.5627 106.482 83.3791 102.359 84.0255 102.155C84.4677 102.019 84.6718 104.029 84.7739 105.222L89.7065 100.417C96.5442 72.2376 106.75 55.3368 119.337 45.8641C131.923 36.3914 136.21 44.1945 136.21 44.1945Z" fill="#FC7575"/>
<path d="M117.33 68.0465L103.961 59.9709C103.961 59.9709 116.888 45.0122 124.133 41.8433C131.345 38.6744 136.822 40.4804 137.707 42.8996C138.625 45.3189 139.272 46.8863 134.645 51.6567C130.053 56.4612 117.33 68.0465 117.33 68.0465Z" fill="#FFDA88"/>
<path d="M130.426 40.1736C133.08 39.901 136.686 40.4121 137.808 42.6269C138.625 44.5692 138.999 45.864 138.046 47.7381C135.835 52.0996 121.173 64.7752 117.363 68.0464C137.706 48.2151 139.543 48.147 137.468 42.7973C137.128 42.0817 136.414 41.5025 135.665 41.1277C134.066 40.3099 132.195 40.1054 130.426 40.1736Z" fill="white"/>
<path d="M235.408 48.3515C235.408 48.3515 233.605 46.8181 231.325 46.8181C229.046 46.8181 213.942 65.7634 210.03 72.1353C206.288 78.2346 194.96 96.3622 192.544 100.179L190.707 104.097C190.129 105.358 190.333 106.823 191.218 107.879L191.524 108.22C191.524 108.22 192.715 108.459 193.123 108.39C193.497 108.322 194.483 107.811 194.483 107.811C194.483 107.811 195.062 107.879 195.232 107.845C195.572 107.743 196.388 106.993 196.388 106.993L195.64 102.632C211.186 76.2924 231.325 61.0953 237.075 58.0286C240.51 56.1886 235.408 48.3515 235.408 48.3515Z" fill="#FC7575"/>
<path d="M236.156 46.8181C235.441 45.7959 234.013 44.6374 230.951 46.1366C229.454 46.8863 221.086 56.9723 215.099 64.9116C217.208 66.6835 219.079 68.6938 220.643 70.9087C228.06 63.8212 234.285 59.4938 237.074 58.0286C240.51 56.1886 237.789 49.1693 236.156 46.8181Z" fill="#18287D"/>
<path d="M231.564 61.6404C232.754 60.6182 234.047 59.6641 235.34 58.8123C235.952 58.3693 236.734 57.9945 237.313 57.5856C237.891 57.1426 238.231 56.4611 238.367 55.7456C238.64 54.2463 238.333 52.6789 237.925 51.1796C237.483 49.6803 236.905 48.2151 236.122 46.8522C237.075 48.1129 237.755 49.5781 238.265 51.0774C238.742 52.5767 239.082 54.2122 238.81 55.8478C238.639 56.6656 238.231 57.4493 237.551 57.9604C237.211 58.233 236.837 58.4034 236.496 58.5737L235.476 59.153C234.183 59.9367 232.89 60.7886 231.564 61.6404Z" fill="#4F80FF"/>
<path d="M106.036 96.26C117.058 98.6112 137.299 100.962 145.667 93.7385L146.552 96.8393C143.524 99.7356 141.279 99.906 137.503 100.894C127.604 103.211 114.166 101.712 105.594 99.02L106.036 96.26Z" fill="#47254F"/>
<path d="M134.611 105.937H122.466C119.847 105.937 117.738 103.824 117.738 101.201V99.9399C117.738 97.3162 119.847 95.2036 122.466 95.2036H134.645C137.264 95.2036 139.374 97.3162 139.374 99.9399V101.201C139.34 103.824 137.23 105.937 134.611 105.937Z" fill="#552E5D"/>
<path d="M128.113 101.984C125.732 101.984 123.317 101.507 121.072 100.519L119.405 99.8037C119.235 99.7355 119.167 99.5651 119.235 99.3948C119.303 99.2585 119.507 99.1903 119.643 99.2585L121.31 99.974C126.344 102.155 132.128 101.78 136.788 98.9859C136.924 98.8836 137.128 98.9518 137.23 99.0881C137.332 99.2244 137.264 99.3948 137.128 99.497C134.407 101.133 131.277 101.984 128.113 101.984Z" fill="black"/>
<path d="M183.836 190.918L179.992 193.236C179.992 193.236 181.931 195.144 182.509 196.95C183.053 198.721 183.802 202.674 186.013 203.287C188.258 203.901 189.585 203.594 189.585 203.594C189.585 203.594 187.816 201.277 187.714 200.732C187.714 200.732 186.251 200.323 185.673 198.96C185.095 197.529 184.856 190.918 183.836 190.918Z" fill="#552E5D"/>
<path d="M265.344 204.071L264.391 206.865H278.951C278.951 206.865 274.563 204.684 273.304 204.684C273.304 204.684 269.46 205.298 267.929 205.059C266.432 204.821 265.344 204.071 265.344 204.071Z" fill="#552E5D"/>
<path d="M241.191 25.3172C239.83 26.612 239.524 29.9172 240.613 30.2921C241.701 30.701 243.776 30.0535 243.776 27.6683C243.776 27.6683 242.552 24.0224 241.191 25.3172Z" fill="#FC7575"/>
<path d="M242.925 27.9409C242.925 27.9409 242.415 26.0328 241.565 26.8165C240.714 27.6002 240.34 29.0654 240.952 29.6446C241.531 30.1898 242.755 29.7128 242.925 27.9409Z" fill="#FD5E5A"/>
</g>
<defs>
<clipPath id="clip0">
<rect width="288" height="210" fill="white"/>
</clipPath>
</defs>
</svg>
