<svg width="24" height="24" viewBox="0 0 24 24" fill="none" xmlns="http://www.w3.org/2000/svg">
<path d="M24 4.33994C23.8395 4.67886 23.5407 5.10696 23.1037 5.62422C22.6667 6.14148 22.1271 6.59634 21.4849 6.98876C21.5028 7.13148 21.5162 7.26524 21.5251 7.3901C21.5943 9.3125 21.1339 11.307 20.495 12.9687C19.2566 16.0582 17.3591 18.5446 14.6488 20.2329C11.8225 21.8541 8.53098 22.1989 5.49832 21.9051C3.485 21.6739 1.50066 21.0165 0 19.7781C2.74466 20.1061 5.3061 19.1725 7.3311 17.6643C5.08166 17.7213 3.44728 16.094 2.6756 14.2128C3.02346 14.304 3.38736 14.293 3.71908 14.2664C4.1274 14.228 4.515 14.1897 4.89634 14.1058C3.462 13.6431 2.20696 12.7923 1.55186 11.5105C1.1676 10.6983 0.9941 9.92486 0.99 9.04896C1.6621 9.40282 2.47056 9.7477 3.21074 9.71784C2.0929 8.7709 1.19674 7.5607 1.03014 6.17268C0.92496 5.01536 1.21456 3.95892 1.63216 2.97536C3.3043 4.81306 5.18046 6.3254 7.34452 7.2563C8.82448 7.86234 10.3002 8.18644 11.8261 8.19274C11.65 6.82984 11.787 5.51174 12.4282 4.3934C13.1828 3.19104 14.2837 2.49344 15.5185 2.1459C17.2852 1.69286 19.0084 2.3328 20.0937 3.56396C21.2642 3.43754 22.3853 2.9183 23.2777 2.3867C22.8985 3.5349 22.1602 4.67654 21.0837 5.22282C22.1086 5.03306 23.0867 4.72964 24 4.33994Z" fill="black"/>
</svg>
