<svg width="24" height="24" viewBox="0 0 24 24" fill="none" xmlns="http://www.w3.org/2000/svg">
<path d="M17.3552 5.45951C17.1179 5.45951 16.8859 5.52989 16.6885 5.66175C16.4912 5.79361 16.3374 5.98102 16.2466 6.20029C16.1557 6.41956 16.132 6.66084 16.1783 6.89362C16.2246 7.1264 16.3389 7.34022 16.5067 7.50804C16.6745 7.67586 16.8883 7.79015 17.1211 7.83645C17.3539 7.88276 17.5952 7.85899 17.8144 7.76817C18.0337 7.67734 18.2211 7.52354 18.353 7.3262C18.4848 7.12886 18.5552 6.89685 18.5552 6.65951C18.5552 6.34125 18.4288 6.03603 18.2037 5.81098C17.9787 5.58594 17.6735 5.45951 17.3552 5.45951ZM21.9552 7.87951C21.9358 7.04981 21.7804 6.22891 21.4952 5.44951C21.2409 4.78264 20.8452 4.17879 20.3352 3.67951C19.84 3.16694 19.2348 2.77369 18.5652 2.52951C17.7879 2.23567 16.9661 2.07672 16.1352 2.05951C15.0752 1.99951 14.7352 1.99951 12.0152 1.99951C9.29521 1.99951 8.95521 1.99951 7.89521 2.05951C7.06437 2.07672 6.24256 2.23567 5.46521 2.52951C4.79689 2.77616 4.19215 3.16907 3.69521 3.67951C3.18264 4.17469 2.78939 4.77995 2.54521 5.44951C2.25137 6.22685 2.09242 7.04866 2.07521 7.87951C2.01521 8.93951 2.01521 9.27951 2.01521 11.9995C2.01521 14.7195 2.01521 15.0595 2.07521 16.1195C2.09242 16.9504 2.25137 17.7722 2.54521 18.5495C2.78939 19.2191 3.18264 19.8243 3.69521 20.3195C4.19215 20.83 4.79689 21.2229 5.46521 21.4695C6.24256 21.7633 7.06437 21.9223 7.89521 21.9395C8.95521 21.9995 9.29521 21.9995 12.0152 21.9995C14.7352 21.9995 15.0752 21.9995 16.1352 21.9395C16.9661 21.9223 17.7879 21.7633 18.5652 21.4695C19.2348 21.2253 19.84 20.8321 20.3352 20.3195C20.8475 19.8221 21.2435 19.2177 21.4952 18.5495C21.7804 17.7701 21.9358 16.9492 21.9552 16.1195C21.9552 15.0595 22.0152 14.7195 22.0152 11.9995C22.0152 9.27951 22.0152 8.93951 21.9552 7.87951ZM20.1552 15.9995C20.1479 16.6343 20.033 17.2632 19.8152 17.8595C19.6555 18.2947 19.3991 18.6879 19.0652 19.0095C18.7409 19.34 18.3484 19.5959 17.9152 19.7595C17.3189 19.9773 16.69 20.0922 16.0552 20.0995C15.0552 20.1495 14.6852 20.1595 12.0552 20.1595C9.42521 20.1595 9.05521 20.1595 8.05521 20.0995C7.3961 20.1119 6.73981 20.0104 6.11521 19.7995C5.70099 19.6276 5.32657 19.3723 5.01521 19.0495C4.6833 18.7283 4.43006 18.3347 4.27521 17.8995C4.03107 17.2947 3.89566 16.6515 3.87521 15.9995C3.87521 14.9995 3.81521 14.6295 3.81521 11.9995C3.81521 9.36951 3.81521 8.99951 3.87521 7.99951C3.8797 7.35057 3.99816 6.70746 4.22521 6.09951C4.40126 5.67742 4.67148 5.30117 5.01521 4.99951C5.31903 4.65568 5.6945 4.38261 6.11521 4.19951C6.72476 3.97956 7.36721 3.86459 8.01521 3.85951C9.01521 3.85951 9.38521 3.79951 12.0152 3.79951C14.6452 3.79951 15.0152 3.79951 16.0152 3.85951C16.65 3.86679 17.2789 3.98176 17.8752 4.19951C18.3296 4.36816 18.7375 4.64236 19.0652 4.99951C19.3929 5.30669 19.649 5.68224 19.8152 6.09951C20.0375 6.70845 20.1525 7.35129 20.1552 7.99951C20.2052 8.99951 20.2152 9.36951 20.2152 11.9995C20.2152 14.6295 20.2052 14.9995 20.1552 15.9995ZM12.0152 6.86951C11.001 6.87149 10.0102 7.17404 9.16787 7.73893C8.32556 8.30382 7.66959 9.10571 7.28285 10.0433C6.8961 10.9808 6.79594 12.012 6.99501 13.0064C7.19408 14.0009 7.68345 14.914 8.40129 15.6305C9.11913 16.3469 10.0332 16.8345 11.0281 17.0317C12.0229 17.2288 13.0539 17.1266 13.9907 16.738C14.9275 16.3495 15.7281 15.692 16.2913 14.8485C16.8546 14.0051 17.1552 13.0137 17.1552 11.9995C17.1565 11.3246 17.0244 10.6561 16.7665 10.0325C16.5085 9.40882 16.1298 8.84232 15.6521 8.36556C15.1744 7.8888 14.6072 7.51119 13.983 7.25444C13.3589 6.99769 12.6901 6.86687 12.0152 6.86951ZM12.0152 15.3295C11.3566 15.3295 10.7128 15.1342 10.1652 14.7683C9.61755 14.4024 9.19073 13.8823 8.93869 13.2738C8.68665 12.6654 8.62071 11.9958 8.7492 11.3499C8.87769 10.7039 9.19484 10.1106 9.66055 9.64485C10.1263 9.17914 10.7196 8.86199 11.3656 8.7335C12.0115 8.60501 12.6811 8.67095 13.2895 8.92299C13.898 9.17503 14.4181 9.60185 14.784 10.1495C15.1499 10.6971 15.3452 11.3409 15.3452 11.9995C15.3452 12.4368 15.2591 12.8698 15.0917 13.2738C14.9244 13.6779 14.6791 14.045 14.3699 14.3542C14.0607 14.6634 13.6936 14.9087 13.2895 15.076C12.8855 15.2434 12.4525 15.3295 12.0152 15.3295Z" fill="black"/>
</svg>
