<svg width="24" height="24" viewBox="0 0 24 24" fill="none" xmlns="http://www.w3.org/2000/svg">
<path d="M17.3556 5.45951C17.1183 5.45951 16.8863 5.52989 16.6889 5.66175C16.4916 5.79361 16.3378 5.98102 16.247 6.20029C16.1561 6.41956 16.1324 6.66084 16.1787 6.89362C16.225 7.1264 16.3393 7.34022 16.5071 7.50804C16.6749 7.67586 16.8887 7.79015 17.1215 7.83645C17.3543 7.88276 17.5956 7.85899 17.8148 7.76817C18.0341 7.67734 18.2215 7.52354 18.3534 7.3262C18.4852 7.12886 18.5556 6.89685 18.5556 6.65951C18.5556 6.34125 18.4292 6.03603 18.2042 5.81098C17.9791 5.58594 17.6739 5.45951 17.3556 5.45951ZM21.9556 7.87951C21.9362 7.04981 21.7808 6.22891 21.4956 5.44951C21.2414 4.78264 20.8456 4.17879 20.3356 3.67951C19.8404 3.16694 19.2352 2.77369 18.5656 2.52951C17.7883 2.23567 16.9665 2.07672 16.1356 2.05951C15.0756 1.99951 14.7356 1.99951 12.0156 1.99951C9.29562 1.99951 8.95563 1.99951 7.89563 2.05951C7.06478 2.07672 6.24297 2.23567 5.46562 2.52951C4.7973 2.77616 4.19256 3.16907 3.69563 3.67951C3.18305 4.17469 2.7898 4.77995 2.54562 5.44951C2.25179 6.22685 2.09283 7.04866 2.07562 7.87951C2.01562 8.93951 2.01562 9.27951 2.01562 11.9995C2.01562 14.7195 2.01562 15.0595 2.07562 16.1195C2.09283 16.9504 2.25179 17.7722 2.54562 18.5495C2.7898 19.2191 3.18305 19.8243 3.69563 20.3195C4.19256 20.83 4.7973 21.2229 5.46562 21.4695C6.24297 21.7633 7.06478 21.9223 7.89563 21.9395C8.95563 21.9995 9.29562 21.9995 12.0156 21.9995C14.7356 21.9995 15.0756 21.9995 16.1356 21.9395C16.9665 21.9223 17.7883 21.7633 18.5656 21.4695C19.2352 21.2253 19.8404 20.8321 20.3356 20.3195C20.8479 19.8221 21.244 19.2177 21.4956 18.5495C21.7808 17.7701 21.9362 16.9492 21.9556 16.1195C21.9556 15.0595 22.0156 14.7195 22.0156 11.9995C22.0156 9.27951 22.0156 8.93951 21.9556 7.87951ZM20.1556 15.9995C20.1483 16.6343 20.0334 17.2632 19.8156 17.8595C19.656 18.2947 19.3995 18.6879 19.0656 19.0095C18.7413 19.34 18.3489 19.5959 17.9156 19.7595C17.3193 19.9773 16.6904 20.0922 16.0556 20.0995C15.0556 20.1495 14.6856 20.1595 12.0556 20.1595C9.42562 20.1595 9.05562 20.1595 8.05562 20.0995C7.39652 20.1119 6.74022 20.0104 6.11562 19.7995C5.70141 19.6276 5.32698 19.3723 5.01562 19.0495C4.68371 18.7283 4.43047 18.3347 4.27563 17.8995C4.03148 17.2947 3.89607 16.6515 3.87562 15.9995C3.87562 14.9995 3.81562 14.6295 3.81562 11.9995C3.81562 9.36951 3.81562 8.99951 3.87562 7.99951C3.88011 7.35057 3.99858 6.70746 4.22563 6.09951C4.40167 5.67742 4.67189 5.30117 5.01562 4.99951C5.31944 4.65568 5.69491 4.38261 6.11562 4.19951C6.72518 3.97956 7.36762 3.86459 8.01562 3.85951C9.01562 3.85951 9.38562 3.79951 12.0156 3.79951C14.6456 3.79951 15.0156 3.79951 16.0156 3.85951C16.6504 3.86679 17.2793 3.98176 17.8756 4.19951C18.3301 4.36816 18.7379 4.64236 19.0656 4.99951C19.3933 5.30669 19.6494 5.68224 19.8156 6.09951C20.0379 6.70845 20.1529 7.35129 20.1556 7.99951C20.2056 8.99951 20.2156 9.36951 20.2156 11.9995C20.2156 14.6295 20.2056 14.9995 20.1556 15.9995ZM12.0156 6.86951C11.0014 6.87149 10.0106 7.17404 9.16828 7.73893C8.32597 8.30382 7.67 9.10571 7.28326 10.0433C6.89651 10.9808 6.79635 12.012 6.99542 13.0064C7.19449 14.0009 7.68386 14.914 8.4017 15.6305C9.11954 16.3469 10.0336 16.8345 11.0285 17.0317C12.0233 17.2288 13.0543 17.1266 13.9911 16.738C14.9279 16.3495 15.7285 15.692 16.2918 14.8485C16.855 14.0051 17.1556 13.0137 17.1556 11.9995C17.1569 11.3246 17.0248 10.6561 16.7669 10.0325C16.5089 9.40882 16.1302 8.84232 15.6525 8.36556C15.1748 7.8888 14.6076 7.51119 13.9834 7.25444C13.3593 6.99769 12.6905 6.86687 12.0156 6.86951ZM12.0156 15.3295C11.357 15.3295 10.7132 15.1342 10.1656 14.7683C9.61796 14.4024 9.19115 13.8823 8.93911 13.2738C8.68707 12.6654 8.62112 11.9958 8.74961 11.3499C8.8781 10.7039 9.19525 10.1106 9.66096 9.64485C10.1267 9.17914 10.72 8.86199 11.366 8.7335C12.0119 8.60501 12.6815 8.67095 13.29 8.92299C13.8984 9.17503 14.4185 9.60185 14.7844 10.1495C15.1503 10.6971 15.3456 11.3409 15.3456 11.9995C15.3456 12.4368 15.2595 12.8698 15.0921 13.2738C14.9248 13.6779 14.6795 14.045 14.3703 14.3542C14.0611 14.6634 13.694 14.9087 13.29 15.076C12.8859 15.2434 12.4529 15.3295 12.0156 15.3295Z" fill="white"/>
</svg>
